<?xml version="1.0" encoding="UTF-8" standalone="no"?>
<!DOCTYPE svg PUBLIC "-//W3C//DTD SVG 1.1//EN" "http://www.w3.org/Graphics/SVG/1.1/DTD/svg11.dtd">
<svg width="100%" height="100%" viewBox="0 0 24381 25790" version="1.1" xmlns="http://www.w3.org/2000/svg" xmlns:xlink="http://www.w3.org/1999/xlink" xml:space="preserve" xmlns:serif="http://www.serif.com/" style="fill-rule:evenodd;clip-rule:evenodd;stroke-linecap:round;stroke-linejoin:round;stroke-miterlimit:1.5;">
    <rect id="_-" serif:id="&lt;" x="0" y="0" width="24380.2" height="25789.1" style="fill:#ebebeb;"/>
    <g id="hintergrund">
        <rect x="9495.7" y="6430" width="3825" height="2506" style="fill:url(#_Linear1);"/>
        <circle cx="11420.7" cy="8772" r="197" style="fill:#f9e4b4;"/>
        <circle cx="11420.7" cy="8772" r="204" style="fill:#f9e4b4;fill-opacity:0.15;"/>
        <circle cx="11420.7" cy="8772" r="200" style="fill:#f9e4b4;fill-opacity:0.2;"/>
        <circle cx="11420.7" cy="8772" r="207" style="fill:#f9e4b4;fill-opacity:0.15;"/>
        <circle cx="11420.7" cy="8772" r="199" style="fill:#f9e4b4;fill-opacity:0.5;"/>
        <path d="M9294.7,8769L9396.7,8697L9455.7,8762C9455.7,8762 10608,8662 10972.7,8693C11211.1,8713.27 13417.7,9099 13417.7,9099L13419.7,9134.55L9404.7,9145L9294.7,8769Z" style="fill:#f9835c;fill-opacity:0.15;"/>
        <path d="M9290.7,8773L9392.7,8701L9451.7,8766C9451.7,8766 10604,8666 10968.7,8697C11207.1,8717.27 13413.7,9103 13413.7,9103L13415.7,9138.55L9400.7,9149L9290.7,8773Z" style="fill:#f9835c;fill-opacity:0.41;"/>
        <path d="M9289.7,8776L9391.7,8704L9450.7,8769C9450.7,8769 10603,8669 10967.7,8700C11206.1,8720.27 13412.7,9106 13412.7,9106L13414.7,9141.55L9399.7,9152L9289.7,8776Z" style="fill:#f9835c;fill-opacity:0.41;"/>
        <path d="M9286.7,8775L9388.7,8703L9447.7,8768C9447.7,8768 10600,8668 10964.7,8699C11203.1,8719.27 13409.7,9105 13409.7,9105L13411.7,9140.55L9396.7,9151L9286.7,8775Z" style="fill:#f9835c;fill-opacity:0.41;"/>
        <path d="M9215.7,9067C9215.7,9067 11282.7,8809.33 11620.7,8774C11807.3,8754.5 12062.9,8759.5 12182.7,8745C12238.1,8738.3 12288.7,8688.17 12339.7,8687C12390.7,8685.83 12436.2,8736.69 12488.7,8738C12562.2,8739.83 12718,8692.5 12780.7,8698C12817.6,8701.24 12827.9,8775.41 12864.7,8771C12960.7,8759.5 13356.7,8629 13356.7,8629L13363.7,9158L9204.7,9344L9215.7,9067Z" style="fill:#de7a61;fill-opacity:0.15;"/>
        <path d="M9212.7,9072C9212.7,9072 11279.7,8814.33 11617.7,8779C11804.3,8759.5 12059.9,8764.5 12179.7,8750C12235.1,8743.3 12285.7,8693.17 12336.7,8692C12387.7,8690.83 12433.2,8741.69 12485.7,8743C12559.2,8744.83 12715,8697.5 12777.7,8703C12814.6,8706.24 12824.9,8780.41 12861.7,8776C12957.7,8764.5 13353.7,8634 13353.7,8634L13360.7,9163L9201.7,9349L9212.7,9072Z" style="fill:#de7a61;fill-opacity:0.41;"/>
        <path d="M9213.7,9070C9213.7,9070 11280.7,8812.33 11618.7,8777C11805.3,8757.5 12060.9,8762.5 12180.7,8748C12236.1,8741.3 12286.7,8691.17 12337.7,8690C12388.7,8688.83 12434.2,8739.69 12486.7,8741C12560.2,8742.83 12716,8695.5 12778.7,8701C12815.6,8704.24 12825.9,8778.41 12862.7,8774C12958.7,8762.5 13354.7,8632 13354.7,8632L13361.7,9161L9202.7,9347L9213.7,9070Z" style="fill:#de7a61;fill-opacity:0.41;"/>
        <path d="M9209.7,9076C9209.7,9076 11276.7,8818.33 11614.7,8783C11801.3,8763.5 12056.9,8768.5 12176.7,8754C12232.1,8747.3 12282.7,8697.17 12333.7,8696C12384.7,8694.83 12430.2,8745.69 12482.7,8747C12556.2,8748.83 12712,8701.5 12774.7,8707C12811.6,8710.24 12821.9,8784.41 12858.7,8780C12954.7,8768.5 13350.7,8638 13350.7,8638L13357.7,9167L9198.7,9353L9209.7,9076Z" style="fill:#de7a61;fill-opacity:0.41;"/>
        <path d="M9212.7,9078C9212.7,9078 11279.7,8820.33 11617.7,8785C11804.3,8765.5 12059.9,8770.5 12179.7,8756C12235.1,8749.3 12285.7,8699.17 12336.7,8698C12387.7,8696.83 12433.2,8747.69 12485.7,8749C12559.2,8750.83 12715,8703.5 12777.7,8709C12814.6,8712.24 12824.9,8786.41 12861.7,8782C12957.7,8770.5 13353.7,8640 13353.7,8640L13360.7,9169L9201.7,9355L9212.7,9078Z" style="fill:#de7a61;fill-opacity:0.41;"/>
        <path d="M11718.7,8049C11720.4,8030.01 11744.3,8033.22 11775.7,8044C11806.4,8505.22 11848,8911.56 11867.7,9336L11792.7,9336C11759.8,8909.38 11712.2,8480.83 11718.7,8049Z" style="fill:#d39065;fill-opacity:0.17;"/>
        <path d="M11720.7,8061C11722.4,8042.01 11746.3,8045.22 11777.7,8056C11808.4,8517.22 11850,8923.56 11869.7,9348L11794.7,9348C11761.8,8921.38 11714.2,8492.83 11720.7,8061Z" style="fill:#d39065;fill-opacity:0.17;"/>
        <path d="M11714.7,8053C11716.4,8034.01 11740.3,8037.22 11771.7,8048C11802.4,8509.22 11844,8915.56 11863.7,9340L11788.7,9340C11755.8,8913.38 11708.2,8484.83 11714.7,8053Z" style="fill:#d39065;fill-opacity:0.17;"/>
        <path d="M11722.7,8053C11724.4,8034.01 11748.3,8037.22 11779.7,8048C11810.4,8509.22 11852,8915.56 11871.7,9340L11796.7,9340C11763.8,8913.38 11716.2,8484.83 11722.7,8053Z" style="fill:#d39065;fill-opacity:0.17;"/>
    </g>
    <g id="neutral">
        <path id="collarbg" d="M7998.06,13030.3L8516.8,12374.6L14359.1,12345.2L14965.8,13020.4L14916.9,13979.6L11315.6,16602.3L7919.74,13930.6L7998.06,13030.3Z" style="fill:#001e3f;stroke:#000;stroke-width:18.01px;"/>
        <path id="neck" d="M7332.76,14258C7332.76,14258 8558.94,13116.2 8651.67,12595.1C8797.33,11775.5 8536.97,9240.71 8536.97,9240.71L14041.6,9211.9C14041.6,9211.9 14013,11637.1 14342.7,12552.1C14619.1,13319 16048.5,14516 16048.5,14516L14285.4,18257.5L9354.06,17913.4L7332.76,14258Z" style="fill:#aa6d5b;"/>
        <g id="neckshadow">
            <clipPath id="_clip2">
                <path d="M7332.76,14258C7332.76,14258 8558.94,13116.2 8651.67,12595.1C8797.33,11775.5 8536.97,9240.71 8536.97,9240.71L14041.6,9211.9C14041.6,9211.9 14013,11637.1 14342.7,12552.1C14619.1,13319 16048.5,14516 16048.5,14516L14285.4,18257.5L9354.06,17913.4L7332.76,14258Z"/>
            </clipPath>
            <g clip-path="url(#_clip2)">
                <path id="neckbeard" d="M9177.61,8368.16C9288.52,8328.01 9193.99,7684.13 9415.46,7465.9C9688.24,7197.08 10470.6,6858.04 10814.7,6754.86C11028.9,6690.58 11479.8,6846.69 11479.8,6846.69C11479.8,6846.69 11776.2,6556.8 11949.9,6594.25C12286.3,6667 13184,7018.82 13498.2,7282.43C13742,7486.97 13580.9,8194.95 13834.9,8175.86C14089.2,8156.78 15023.5,7167.73 15023.5,7167.73L14840,9633.41C14840,9633.41 14189.1,10936.3 13235.9,11799.5C12764.1,12226.7 12633.6,13511.8 11697.7,13535.6C10799.9,13558.3 10498.9,12251.6 9925.02,11844.9C8654.36,10944.2 7523.26,9495.85 7523.26,9495.85L6915.39,6732L8750.34,7706.82C8750.34,7706.82 9066.69,8408.31 9177.61,8368.16ZM13648.6,8524.99C13615.4,8919.67 13396.1,9908.18 13063.2,10026.1C12730.5,10143.9 12426.5,8911.93 11629.8,8945.78C10649,8987.55 10531.8,10121.2 10173.3,10060.5C9814.82,9999.82 9596.42,9221.8 9500.81,8868.18C9409.16,8529.13 9367.02,8063.15 9621.8,7821.51C9952.2,7508.22 10862.6,7408.47 11483,6988.76C11964.9,7300.61 12922.9,7284.77 13284,7540.63C13569.3,7743.19 13677.9,8176.22 13648.6,8524.99Z" style="fill:#775a51;fill-opacity:0.5;"/>
                <path id="neckshadowpath" d="M8332.07,7879.67C8041.82,8604.93 8836.22,9643.31 9086.32,10187.4C9251.97,10547.7 9766.57,10652.7 9952.75,11002.9C10148.1,11370.4 9665.38,12203.3 9674.2,12677.2C9686.98,13361.1 9127.91,14553.8 9404.12,15173.9C9680.14,15794.2 11341.7,16123.3 11915.2,16112.7C12488.6,16102.1 13657.2,15635.6 13823,15028.8C13994.8,14400.9 13281.6,12923.9 13230.7,12223.1C13193.7,11716.5 13065.9,11222.4 13163.9,10837.3C13236.6,10551.9 13430.5,10310.4 13533.5,10034.6C13739.5,9482.34 14755.2,8287.86 14367.3,7839.52C14107.9,7539.73 12611.3,8128.15 12313.8,8050.72C11982.3,7964.48 11339.4,7933.15 10814,8052.7C10421.6,8141.83 8584.68,7248.58 8332.07,7879.67Z" style="fill:url(#_Linear3);"/>
                <path id="neckhilight" d="M22043.6,4211.76L1124.81,4211.76L1124.81,22794.6L22043.6,22794.6L22043.6,4211.76ZM7637.23,14258C7637.23,14258 8778.78,13116.2 8865.03,12595.1C9000.61,11775.5 8758.26,9240.71 8758.26,9240.71L13882.5,9211.9C13882.5,9211.9 13855.8,11637.1 14162.8,12552.1C14419.9,13319 15750.7,14516 15750.7,14516L14109.3,18257.5L9518.81,17913.4L7637.23,14258Z" style="fill:#fcb879;"/>
            </g>
        </g>
        <path id="neck1" serif:id="neck" d="M7332.76,14258C7332.76,14258 8558.94,13116.2 8651.67,12595.1C8797.33,11775.5 8536.97,9240.71 8536.97,9240.71L14041.6,9211.9C14041.6,9211.9 14013,11637.1 14342.7,12552.1C14619.1,13319 16048.5,14516 16048.5,14516L14285.4,18257.5L9354.06,17913.4L7332.76,14258Z" style="fill:none;stroke:#000;stroke-width:59.96px;"/>
        <path id="shirt" d="M0,25481C0,25481 322.299,19108.3 1389.49,17747.6C2527.08,16297.1 6084.07,14860.6 7887.51,13767.8C8150.03,13608.9 9154.74,14784.4 9154.74,14784.4L11589.3,15112.1L13430.5,14865.5C13430.5,14865.5 15053.9,13288.5 15156.9,13333.2C18297.8,14696.2 20580.9,14098.1 21799.5,15704.7C23017.9,17311.5 24380.2,25789.1 24380.2,25789.1L0,25481Z" style="fill:#275175;"/>
        <g id="shirtshadow2">
            <clipPath id="_clip4">
                <path d="M0,25481C0,25481 322.299,19108.3 1389.49,17747.6C2527.08,16297.1 6084.07,14860.6 7887.51,13767.8C8150.03,13608.9 9154.74,14784.4 9154.74,14784.4L11589.3,15112.1L13430.5,14865.5C13430.5,14865.5 15053.9,13288.5 15156.9,13333.2C18297.8,14696.2 20580.9,14098.1 21799.5,15704.7C23017.9,17311.5 24380.2,25789.1 24380.2,25789.1L0,25481Z"/>
            </clipPath>
            <g clip-path="url(#_clip4)">
                <path id="shirthilight" d="M30619.2,6465.15L-7794.04,6465.15L-7794.04,35362.4L30619.2,35362.4L30619.2,6465.15ZM351.648,25615.3C351.648,25615.3 664.045,19329.2 1698.28,17986.9C2800.94,16556.2 6248.28,15139.3 7996.26,14061.3C8250.5,13904.5 9224.24,15064.1 9224.24,15064.1L11583.7,15387.4L13368.2,15144.2C13368.2,15144.2 14941.7,13588.7 15041.5,13632.6C18085.7,14977.1 20298.4,14387.1 21479.4,15971.9C22660.3,17556.9 23980.9,25919.2 23980.9,25919.2L351.648,25615.3Z" style="fill:#fcb879;fill-opacity:0.5;"/>
                <g id="shirtshadow" opacity="0.5">
                    <g style="filter:url(#_Effect5);">
                        <g>
                            <path d="M20000.2,20264.1C19207.4,18675.6 17869.1,16796.4 15785.6,16149.3C14715.6,15816.9 13107,12522.6 11513.8,12575.9C10005.5,12626.3 8510.86,16005 7499.85,16381.5C5429.39,17152.7 4087.08,18978.1 3313.92,20595.9C2492.15,22315.8 2568.49,26701.6 2568.49,26701.6C2568.49,28478 4846.91,30019.8 6381.7,30019.8L16932.4,29754.4C18467.4,29754.4 21118.3,28610.9 21118.3,26834.3C21118.3,26834.3 20889,22044.8 20000.2,20264.1Z" style="fill:url(#_Linear6);"/>
                        </g>
                    </g>
                </g>
            </g>
        </g>
        <path id="shirtlone" d="M0,25481C0,25481 322.299,19108.3 1389.49,17747.6C2527.08,16297.1 6084.07,14860.6 7887.51,13767.8C8150.03,13608.9 9154.74,14784.4 9154.74,14784.4L11589.3,15112.1L13430.5,14865.5C13430.5,14865.5 15053.9,13288.5 15156.9,13333.2C18297.8,14696.2 20580.9,14098.1 21799.5,15704.7C23017.9,17311.5 24380.2,25789.1 24380.2,25789.1L0,25481Z" style="fill:none;stroke:#000;stroke-width:59.96px;"/>
        <path id="head" d="M7833.67,5361.23C7899.57,4964.57 7967.81,4653.26 7967.81,4653.26C7967.81,4653.26 7773.53,3579.59 8008.87,3302.84C8534.45,2684.53 8173.44,992.729 11121.7,943.934C14014.8,896.04 14138,2944.89 14723.3,3560.14C14971.3,3820.68 14633.8,4635.25 14633.8,4635.25C14633.8,4635.25 14786,5444.78 14823.1,6023.48L14869.2,5294.07C14869.2,5294.07 15078.9,5229.79 15187.3,5372.94C15382,5630.24 15538.8,5831 15516.5,6451.47C15404.3,7360.39 15238.6,8027.86 14858.2,7976.18C14830.4,8379.68 14751.2,8773.47 14562.2,9097.2C14033.5,10002.2 13480.6,11582.3 11659.3,11713.4C9658.35,11857.5 8911.67,10372.4 8254.64,9527.18C7930.9,9110.89 7813.87,8541.01 7767.23,7977.08C7438.27,7937.83 7286.84,7299.89 7182.23,6451.47C7159.9,5831 7316.73,5630.24 7511.37,5372.94C7619.77,5229.79 7829.53,5294.07 7829.53,5294.07L7833.67,5361.23Z" style="fill:#aa6d5b;"/>
        <g id="headhilight">
            <clipPath id="_clip7">
                <path d="M7833.67,5361.23C7899.57,4964.57 7967.81,4653.26 7967.81,4653.26C7967.81,4653.26 7773.53,3579.59 8008.87,3302.84C8534.45,2684.53 8173.44,992.729 11121.7,943.934C14014.8,896.04 14138,2944.89 14723.3,3560.14C14971.3,3820.68 14633.8,4635.25 14633.8,4635.25C14633.8,4635.25 14786,5444.78 14823.1,6023.48L14869.2,5294.07C14869.2,5294.07 15078.9,5229.79 15187.3,5372.94C15382,5630.24 15538.8,5831 15516.5,6451.47C15404.3,7360.39 15238.6,8027.86 14858.2,7976.18C14830.4,8379.68 14751.2,8773.47 14562.2,9097.2C14033.5,10002.2 13480.6,11582.3 11659.3,11713.4C9658.35,11857.5 8911.67,10372.4 8254.64,9527.18C7930.9,9110.89 7813.87,8541.01 7767.23,7977.08C7438.27,7937.83 7286.84,7299.89 7182.23,6451.47C7159.9,5831 7316.73,5630.24 7511.37,5372.94C7619.77,5229.79 7829.53,5294.07 7829.53,5294.07L7833.67,5361.23Z"/>
            </clipPath>
            <g clip-path="url(#_clip7)">
                <path id="beard" d="M9177.61,8368.16C9288.52,8328.01 9193.99,7684.13 9415.46,7465.9C9688.24,7197.08 10470.6,6858.04 10814.7,6754.86C11028.9,6690.58 11479.8,6846.69 11479.8,6846.69C11479.8,6846.69 11776.2,6556.8 11949.9,6594.25C12286.3,6667 13184,7018.82 13498.2,7282.43C13742,7486.97 13580.9,8194.95 13834.9,8175.86C14089.2,8156.78 14873.1,7318.08 14873.1,7318.08L14840,9633.41C14840,9633.41 13385.5,12545.6 11640.2,12546.3C9906.29,12547.2 7761.11,9339.2 7761.11,9339.2L7760.93,7189.16L8750.34,7706.82C8750.34,7706.82 9066.69,8408.31 9177.61,8368.16ZM13648.6,8524.99C13615.4,8919.67 13396.1,9908.18 13063.2,10026.1C12730.5,10143.9 12426.5,8911.93 11629.8,8945.78C10649,8987.55 10531.8,10121.2 10173.3,10060.5C9814.82,9999.82 9596.42,9221.8 9500.81,8868.18C9409.16,8529.13 9367.02,8063.15 9621.8,7821.51C9952.2,7508.22 10862.6,7408.47 11483,6988.76C11964.9,7300.61 12922.9,7284.77 13284,7540.63C13569.3,7743.19 13677.9,8176.22 13648.6,8524.99Z" style="fill:#775a51;fill-opacity:0.5;"/>
                <path id="nshadow" d="M8332.07,7879.67C8041.82,8604.93 8836.22,9643.31 9086.32,10187.4C9251.97,10547.7 9766.57,10652.7 9952.75,11002.9C10148.1,11370.4 9665.38,12203.3 9674.2,12677.2C9686.98,13361.1 9127.91,14553.8 9404.12,15173.9C9680.14,15794.2 11341.7,16123.3 11915.2,16112.7C12488.6,16102.1 13657.2,15635.6 13823,15028.8C13994.8,14400.9 13281.6,12923.9 13230.7,12223.1C13193.7,11716.5 13065.9,11222.4 13163.9,10837.3C13236.6,10551.9 13430.5,10310.4 13533.5,10034.6C13739.5,9482.34 14755.2,8287.86 14367.3,7839.52C14107.9,7539.73 12611.3,8128.15 12313.8,8050.72C11982.3,7964.48 11339.4,7933.15 10814,8052.7C10421.6,8141.83 8584.68,7248.58 8332.07,7879.67Z" style="fill:url(#_Linear8);"/>
                <path id="undernose" d="M10577.9,6357.3C10647.6,6485.68 10726.1,6611.36 10926.7,6698.51C10890.3,6442.83 10803.5,6093.52 10913.9,6098.2C11065.3,6104.5 11164.3,6723.89 11416.8,6734.34C11689.2,6745.68 11658.6,6117.29 11886.2,6110.99C12052.4,6106.48 11966.1,6665.2 12029.9,6683.02C12174.8,6585.07 12261.2,6399.07 12337.6,6198.31C12337.6,6198.31 12386.7,7138.74 11465.4,7196.18C10669.4,7245.69 10577.9,6357.3 10577.9,6357.3Z" style="fill:url(#_Linear9);"/>
                <path id="noseshadow" d="M11211.2,4074.56C11225.7,4304.67 11321.3,5087.73 11157.7,5347.19C10930.4,5707.3 10714,5855.85 10623.6,6259.53C10593.6,6393.67 10825.5,6619.82 10846.5,6588.85C10900.4,6510.71 10577.4,6071.91 10957.6,6014.48C11385.8,5949.66 11163.3,6746.22 11406,6754.32C11771.3,6766.39 11614.3,6074.79 11741.4,6014.48C11804.3,5984.59 11969.2,5962.62 12054.4,6134.03C12141.9,6310.31 12069.1,6589.75 12119.2,6532.49C12328.4,6293.02 12056.9,5715.58 11679.7,5410.75C11518.5,5280.75 11576.1,4295.49 11600.6,4058.89C11618.1,3890.18 11671.9,3672.32 11827.7,3604.97C12166.9,3458.05 13307,3223.26 13667.5,3193.91C13800.2,3183.1 14042.5,3551.14 13990.5,3428.7C13878,3164.56 13375.6,1978.71 12992.3,1608.52C12665.6,1293.06 12135.9,1277.4 11690.6,1207.36C11245.4,1137.13 10733.3,1037.56 10320.6,1187.73C9907.91,1337.72 9428.42,1812.34 9214.7,2107.63C9044.91,2342.43 8859.27,2768.26 9038.6,2958.93C9217.94,3149.79 9943.74,3140.07 10291.2,3252.61C10581.5,3346.59 10875.7,3486.86 11029.1,3623.88C11140.8,3723.63 11201.6,3925.29 11211.2,4074.56Z" style="fill:url(#_Linear10);"/>
                <path id="eyeshadow" d="M8635.64,7158.73C8537.69,6487.3 7950.71,5526.89 8431.82,4655.24C8958.3,3700.94 10293.8,3952.48 10731.5,3978.23C10965.9,3992.09 11068.2,4615.09 10935.3,4989.6C10629.6,5851.17 10273.2,6698.33 10503.2,6897.83C10765.2,7125.06 12149.8,7124.88 12386.9,6873.34C12726.5,6513.59 12024.1,5303.44 11954.8,4965.11C11903.3,4713.57 11906.2,4102.47 12126,4084.28C12539.2,4050.25 13794.2,3659.17 14360.5,4777.49C14807.8,5660.49 14226,6703.37 14124.1,7150.63C14008.3,7657.84 14450.5,8492.76 14148.6,8414.8C13822.3,8330.35 12610.5,7458.7 12093.4,7191.5C11801.6,7266.22 11412.3,7406.31 11033.3,7281.17C10853,7238.49 8782.39,8522.11 8390.94,8488.08C7999.5,8454.05 8701.54,7610.67 8635.64,7158.73Z" style="fill:url(#_Linear11);"/>
                <path id="headhilight1" serif:id="headhilight" d="M20939.5,-1154.79L2148.78,-1154.79L2148.78,15733.3L20939.5,15733.3L20939.5,-1154.79ZM8020.57,5412.91C8083.05,5037.32 8147.69,4742.56 8147.69,4742.56C8147.69,4742.56 7963.67,3725.97 8186.58,3463.99C8684.26,2878.63 8342.33,1276.68 11133.7,1230.58C13873.1,1185.03 13989.8,3125.13 14544,3707.61C14778.8,3954.28 14459.2,4725.64 14459.2,4725.64C14459.2,4725.64 14603.4,5491.95 14638.5,6040.04L14682.1,5349.35C14682.1,5349.35 14880.5,5288.31 14983.1,5424.07C15167.7,5667.69 15316.1,5857.65 15294.8,6445.17C15188.8,7305.83 15031.9,7937.65 14671.6,7888.85C14645.4,8270.93 14466.4,8603.31 14391.3,8950.28C14151.8,10057.1 13367.3,11574.9 11642.7,11699.2C9748.2,11835.5 8747.63,10320.7 8419.21,9357.39C8258.06,8884.74 8001.84,8423.62 7957.73,7889.57C7646.24,7852.66 7502.91,7248.58 7403.88,6445.17C7382.63,5857.65 7531,5667.69 7715.56,5424.07C7818.19,5288.31 8016.61,5349.35 8016.61,5349.35L8020.57,5412.91Z" style="fill:#fcb879;"/>
            </g>
        </g>
        <path id="head1" serif:id="head" d="M7833.67,5361.23C7899.57,4964.57 7967.81,4653.26 7967.81,4653.26C7967.81,4653.26 7773.53,3579.59 8008.87,3302.84C8534.45,2684.53 8173.44,992.729 11121.7,943.934C14014.8,896.04 14138,2944.89 14723.3,3560.14C14971.3,3820.68 14633.8,4635.25 14633.8,4635.25C14633.8,4635.25 14786,5444.78 14823.1,6023.48L14869.2,5294.07C14869.2,5294.07 15078.9,5229.79 15187.3,5372.94C15382,5630.24 15538.8,5831 15516.5,6451.47C15404.3,7360.39 15238.6,8027.86 14858.2,7976.18C14830.4,8379.68 14751.2,8773.47 14562.2,9097.2C14033.5,10002.2 13480.6,11582.3 11659.3,11713.4C9658.35,11857.5 8911.67,10372.4 8254.64,9527.18C7930.9,9110.89 7813.87,8541.01 7767.23,7977.08C7438.27,7937.83 7286.84,7299.89 7182.23,6451.47C7159.9,5831 7316.73,5630.24 7511.37,5372.94C7619.77,5229.79 7829.53,5294.07 7829.53,5294.07L7833.67,5361.23Z" style="fill:none;stroke:#000;stroke-width:59.96px;"/>
        <path id="mouth" d="M10493,8071.94L11204.9,7258.62C11387.8,7341.18 11597,7316.08 11834.6,7174.29L12512.3,8001.7C11885.1,8796.96 11211.4,8809.95 10493,8071.94Z" style="fill:#9d5851;"/>
        <path id="mouthline" d="M11104.3,8045.96C11160.3,8069.95 11260.1,7866.52 11260.1,7866.52C11428.7,7945.34 11582.5,7973.3 11760.1,7865.19C11760.1,7865.19 11864.6,8027.02 11922.2,8010.95" style="fill:none;stroke:#7b2e26;stroke-width:53.32px;"/>
        <path id="mouthoutline" d="M10493,8071.94L11204.9,7258.62C11387.8,7341.18 11597,7316.08 11834.6,7174.29L12512.3,8001.7C11885.1,8796.96 11211.4,8809.95 10493,8071.94Z" style="fill:none;stroke:#7b2e26;stroke-width:57.69px;"/>
        <g id="eyes">
            <g id="lefteyeclip">
                <clipPath id="_clip12">
                    <path d="M10480.7,4818.01C10395.5,5087.06 10167.7,5166.6 9750.9,5237.72C9358.56,5304.88 8951.73,5253.67 8784.01,5066.12C8948.4,5253.02 9392.41,5315.5 9750.9,5237.72C10173.7,5146.07 10387.8,5073.51 10480.7,4818.01Z"/>
                </clipPath>
                <g clip-path="url(#_clip12)">
                    <path id="leyewhite" d="M10480.7,4818.01C10352.5,4599.06 9973.63,4483.82 9556.98,4554.95C9164.64,4621.93 8858.73,4833.67 8784.01,5066.12C8948.4,5253.02 9275.56,5361.41 9640.71,5325.76C10053.4,5285.61 10387.8,5073.51 10480.7,4818.01Z" style="fill:#bdbdbd;"/>
                    <g id="lcolor">
                        <path id="liris" d="M9590.11,4665.86C9410.6,4696.47 9288.16,4858.16 9316.97,5026.69C9345.78,5195.4 9514.85,5307.4 9694.37,5276.61C9873.88,5246 9996.14,5084.31 9967.51,4915.78C9938.7,4747.07 9769.63,4635.25 9590.11,4665.86Z" style="fill:#ad3e03;stroke:#7b2e26;stroke-width:72.38px;"/>
                        <path id="lpupil" d="M9608.48,4809.01C9509.63,4825.93 9442.29,4914.52 9457.95,5006.89C9473.8,5099.25 9566.89,5160.47 9665.56,5143.73C9764.41,5126.8 9831.75,5038.22 9816.08,4945.67C9800.24,4853.48 9707.15,4792.08 9608.48,4809.01Z"/>
                        <path id="lfullref" d="M9743.88,4713.4C9671.14,4725.82 9618.56,4773.35 9626.31,4819.27C9634.23,4865.18 9699.59,4892.37 9772.33,4879.95C9845.07,4867.52 9897.83,4820.17 9889.91,4774.25C9881.98,4728.34 9816.62,4701.15 9743.88,4713.4Z" style="fill:#fff;"/>
                        <path id="lhalfref" d="M9539.34,5079.27C9466.59,5091.69 9413.84,5139.05 9421.76,5184.96C9429.5,5230.88 9495.04,5258.24 9567.79,5245.82C9640.53,5233.22 9693.1,5185.86 9685.36,5139.95C9677.44,5094.03 9612.08,5066.84 9539.34,5079.27Z" style="fill:#fff;fill-opacity:0.25;"/>
                    </g>
                </g>
            </g>
            <path id="letoutline" d="M10480.7,4818.01C10388.5,5080.06 10167.7,5166.6 9750.9,5237.72C9358.56,5304.88 8948.73,5256.67 8784.01,5066.12C8948.4,5253.02 9392.41,5315.5 9750.9,5237.72C10173.7,5146.07 10387.8,5073.51 10480.7,4818.01Z" style="fill:none;stroke:#000;stroke-width:59.96px;"/>
            <g id="righteyeclip">
                <clipPath id="_clip13">
                    <path d="M12271.9,4818.01C12370.9,5076.06 12585,5166.6 13001.6,5237.72C13394.1,5304.88 13803.8,5260.67 13968.5,5066.12C13804,5253.02 13360.1,5315.5 13001.6,5237.72C12578.9,5146.07 12364.8,5073.51 12271.9,4818.01Z"/>
                </clipPath>
                <g clip-path="url(#_clip13)">
                    <path id="reyewhite" d="M12271.9,4818.01C12399.9,4599.06 12778.7,4483.82 13195.5,4554.95C13587.9,4621.93 13893.8,4833.67 13968.5,5066.12C13804,5253.02 13477,5361.41 13111.8,5325.76C12699.1,5285.61 12364.8,5073.51 12271.9,4818.01Z" style="fill:#bdbdbd;"/>
                    <g id="rcolor">
                        <path id="riris" d="M12997.3,4658.48C12817.8,4689.09 12695.4,4850.96 12724.2,5019.49C12753,5188.02 12922,5300.02 13101.6,5269.41C13281.1,5238.62 13403.3,5076.93 13374.5,4908.4C13345.9,4739.86 13176.6,4627.87 12997.3,4658.48Z" style="fill:#ad3e03;stroke:#7b2e26;stroke-width:72.38px;"/>
                        <path id="rpupil" d="M13015.7,4801.62C12916.8,4818.55 12849.3,4907.14 12865.1,4999.5C12881,5091.87 12973.9,5153.27 13072.7,5136.35C13171.6,5119.42 13238.9,5030.83 13223.1,4938.47C13207.4,4846.1 13114.3,4784.7 13015.7,4801.62Z"/>
                        <path id="rfullref" d="M13151.1,4706.19C13078.3,4718.62 13025.6,4765.97 13033.5,4811.89C13041.4,4857.8 13106.8,4884.99 13179.5,4872.56C13252.3,4860.14 13304.8,4812.79 13297.1,4766.87C13289.2,4720.96 13223.8,4693.77 13151.1,4706.19Z" style="fill:#fff;"/>
                        <path id="rhalfref" d="M12946.5,5071.89C12873.8,5084.31 12821,5131.66 12829,5177.58C12836.7,5223.49 12902.2,5250.86 12974.8,5238.44C13047.5,5226.01 13100.3,5178.66 13092.4,5132.56C13084.6,5086.65 13019.1,5059.46 12946.5,5071.89Z" style="fill:#fff;fill-opacity:0.25;"/>
                    </g>
                </g>
            </g>
            <path id="rightoutline" d="M12271.9,4818.01C12367.9,5044.06 12585,5166.6 13001.6,5237.72C13394.1,5304.88 13807.8,5256.67 13968.5,5066.12C13804,5253.02 13360.1,5315.5 13001.6,5237.72C12578.9,5146.07 12364.8,5073.51 12271.9,4818.01Z" style="fill:none;stroke:#000;stroke-width:59.96px;"/>
        </g>
        <path id="nose" d="M11072.7,4120.65C11115.9,4414.14 11130.5,4675.22 11061,4963.67C10975.8,5317.12 10623.6,5960.46 10561.9,6240.27C10525,6408.44 10827.8,6714.17 10888.3,6680.68C11022.5,6606.32 10649.2,6014.66 10962.3,6094.6C11038.3,6114.05 11202.9,6605.24 11301.7,6710.03C11355.6,6766.93 11489.2,6766.39 11536.7,6704.09C11612,6605.24 11708.5,6143.76 11786.8,6121.61C12187.4,6008.71 11897.2,6585.61 12023.9,6674.74C12100.8,6728.94 12359.5,6322.91 12317.6,6116.93C12262.9,5847.93 11869.8,5323.42 11779.8,4984.92C11695.9,4669.82 11749.9,4410.18 11777.4,4085.36" style="fill:none;stroke:#000;stroke-width:59.96px;"/>
        <path id="lefthair" d="M8186.94,7434.03L7749.95,7198.34C7595.64,7207.52 7546.12,2395.9 8429.48,1560.26C9155.1,874.073 9813.92,474.53 10507.5,354.073L9929.16,1357.16C8407.87,2187.58 7510.11,5789.41 8186.94,7434.03Z" style="fill:#4a4a4a;"/>
        <g id="lefthairshine">
            <clipPath id="_clip14">
                <path d="M8186.94,7434.03L7749.95,7198.34C7595.64,7207.52 7546.12,2395.9 8429.48,1560.26C9155.1,874.073 9813.92,474.53 10507.5,354.073L9929.16,1357.16C8407.87,2187.58 7510.11,5789.41 8186.94,7434.03Z"/>
            </clipPath>
            <g clip-path="url(#_clip14)">
                <path id="leftHairHilight" d="M18471,-1331.25L4220.5,-1331.25L4220.5,12876.6L18471,12876.6L18471,-1331.25ZM8186.94,7434.03L7913.08,7198.34C7758.77,7207.52 7695.57,2422.91 8578.92,1587.45C9304.55,901.261 9827.43,678.352 10521.2,557.895L9929.16,1357.16C8407.87,2187.58 7510.11,5789.41 8186.94,7434.03Z" style="fill:#fcb879;fill-opacity:0.5;"/>
            </g>
        </g>
        <path id="lefthairline" d="M8186.94,7434.03L7749.95,7198.34C7595.64,7207.52 7546.12,2395.9 8429.48,1560.26C9155.1,874.073 9813.92,474.53 10507.5,354.073L9929.16,1357.16C8407.87,2187.58 7510.11,5789.41 8186.94,7434.03Z" style="fill:none;stroke:#000;stroke-width:59.96px;"/>
        <path id="righthair" d="M14895.4,5912.02C15381.8,4762.55 15141.8,5955.78 15153.6,4737.52C15188.6,1174.59 14068.3,169.696 11722.1,55.901C10182.1,-18.822 9639.09,1225.36 9829.59,1360.76C10182.1,2351.79 11037.4,2515.28 13225.1,2631.77C13920.4,2469.36 14683.2,4031.16 14635.3,5351.69C14610.8,6022.4 14391.7,7770.74 14391.7,7770.74L14877.1,7313.04C14877.1,7313.04 14905.5,5876.37 14895.4,5912.02Z" style="fill:#4a4a4a;"/>
        <g id="hairshine">
            <clipPath id="_clip15">
                <path d="M14895.4,5912.02C15381.8,4762.55 15141.8,5955.78 15153.6,4737.52C15188.6,1174.59 14068.3,169.696 11722.1,55.901C10182.1,-18.822 9639.09,1225.36 9829.59,1360.76C10182.1,2351.79 11037.4,2515.28 13225.1,2631.77C13920.4,2469.36 14683.2,4031.16 14635.3,5351.69C14610.8,6022.4 14391.7,7770.74 14391.7,7770.74L14877.1,7313.04C14877.1,7313.04 14905.5,5876.37 14895.4,5912.02Z"/>
            </clipPath>
            <g clip-path="url(#_clip15)">
                <path id="righthairhilight" d="M18471,-1331.25L4220.5,-1331.25L4220.5,12876.6L18471,12876.6L18471,-1331.25ZM15051.6,5363.76C15043.1,5357.27 14998.8,5291.19 15004.2,4751.03C15039,1188.09 13946,360.014 11722.1,246.219C10182.3,167.355 9639.09,1225.36 9829.59,1360.76C10182.1,2351.79 11037.4,2515.28 13225.1,2631.77C13920.4,2469.36 14683.2,4031.16 14635.3,5351.69C14610.8,6022.4 14391.7,7770.74 14391.7,7770.74L14877.1,7313.04C14877.1,7313.04 14905,5900.14 14895.8,5911.3L14895.4,5912.02C14895.6,5911.66 14895.6,5911.66 14895.6,5911.3L14895.8,5911.3C15122.1,5376.54 15041.5,5363.03 15051.6,5363.76Z" style="fill:#fcb879;fill-opacity:0.5;"/>
            </g>
        </g>
        <path id="hairline" d="M14895.4,5912.02C15381.8,4762.55 15141.8,5955.78 15153.6,4737.52C15188.6,1174.59 14068.3,169.696 11722.1,55.901C10182.1,-18.822 9639.09,1225.36 9829.59,1360.76C10182.1,2351.79 11037.4,2515.28 13225.1,2631.77C13920.4,2469.36 14683.2,4031.16 14635.3,5351.69C14610.8,6022.4 14391.7,7770.74 14391.7,7770.74L14877.1,7313.04C14877.1,7313.04 14905.5,5876.37 14895.4,5912.02Z" style="fill:none;stroke:#000;stroke-width:59.96px;"/>
        <path id="rightbrow" d="M11048.7,3911.07C11048.7,3911.07 10203.2,3890.9 9734.16,3876.32C8692.9,3843.55 8363.04,4395.06 8363.04,4395.06C8363.04,4395.06 8650.22,3593.09 8983.33,3465.07C9354.78,3322.11 10255.6,3485.06 10599.9,3559.24C10777,3597.59 11048.7,3911.07 11048.7,3911.07Z" style="fill:#4a4a4a;stroke:#000;stroke-width:59.96px;"/>
        <path id="leftbrow" d="M11766.8,3911.07C11766.8,3911.07 12612.2,3890.9 13081.2,3876.32C14122.5,3843.55 14452.5,4395.06 14452.5,4395.06C14452.5,4395.06 14165.1,3593.09 13832,3465.07C13460.6,3322.11 12559.8,3485.06 12215.5,3559.24C12038.3,3597.59 11766.8,3911.07 11766.8,3911.07Z" style="fill:#4a4a4a;stroke:#000;stroke-width:59.96px;"/>
        <path id="rightcollar" d="M14265.4,12285.6C14692.7,12396.4 14866.8,12762.6 15076,13052.5C15104.5,13089 15365.6,14202.3 15251.1,14284.4C14726.2,15089.8 11926,16597.6 11926,16412.3L11444.9,15068.4C12571.5,14819.2 13681.5,14213.3 14769.9,13142C14717.9,12850.8 14571.2,12656.5 14341.2,12547.8C14313.5,12470.2 14288.3,12382 14265.4,12285.6Z" style="fill:#275175;"/>
        <g id="rightcollarclop">
            <clipPath id="_clip16">
                <path d="M14265.4,12285.6C14692.7,12396.4 14866.8,12762.6 15076,13052.5C15104.5,13089 15365.6,14202.3 15251.1,14284.4C14726.2,15089.8 11926,16597.6 11926,16412.3L11444.9,15068.4C12571.5,14819.2 13681.5,14213.3 14769.9,13142C14717.9,12850.8 14571.2,12656.5 14341.2,12547.8C14313.5,12470.2 14288.3,12382 14265.4,12285.6Z"/>
            </clipPath>
            <g clip-path="url(#_clip16)">
                <g id="rightcollarshadow" opacity="0.5">
                    <g style="filter:url(#_Effect17);">
                        <g>
                            <path d="M20000.2,20264.1C19207.4,18675.6 17869.1,16796.4 15785.6,16149.3C14715.6,15816.9 13107,12522.6 11513.8,12575.9C10005.5,12626.3 8510.86,16005 7499.85,16381.5C5429.39,17152.7 4087.08,18978.1 3313.92,20595.9C2492.15,22315.8 2568.49,26701.6 2568.49,26701.6C2568.49,28478 4846.91,30019.8 6381.7,30019.8L16932.4,29754.4C18467.4,29754.4 21118.3,28610.9 21118.3,26834.3C21118.3,26834.3 20889,22044.8 20000.2,20264.1Z" style="fill:url(#_Linear18);"/>
                        </g>
                    </g>
                </g>
                <path id="rightcollarhilight" d="M7581.41,14210.1L7796.94,13005.1C8038.4,11486 14167.7,10901.2 15115.3,13005.1L15292.8,14248.1L15039.1,14539.7L14899.6,13131.9C12875.8,10281.1 10561.3,10345.9 7974.48,13144.7L7809.55,14463.8L7581.41,14210.1Z" style="fill:#fcb879;fill-opacity:0.5;"/>
            </g>
        </g>
        <path id="rightcollar1" serif:id="rightcollar" d="M14265.4,12285.6C14692.7,12396.4 14866.8,12762.6 15076,13052.5C15104.5,13089 15365.6,14202.3 15251.1,14284.4C14726.2,15089.8 11926,16597.6 11926,16412.3L11444.9,15068.4C12571.5,14819.2 13681.5,14213.3 14769.9,13142C14717.9,12850.8 14571.2,12656.5 14341.2,12547.8C14313.5,12470.2 14288.3,12382 14265.4,12285.6Z" style="fill:none;stroke:#000;stroke-width:59.96px;"/>
        <path id="leftcollar" d="M8685.69,12270C8681.01,12353.3 8674.53,12430.2 8665.89,12498.6C8363.22,12592.1 8172.36,12800.2 8111.5,13142C9196.69,14213.3 10303.3,14819.2 11426.7,15068.4L10946.8,16412.3C10946.8,16597.6 8155.07,15089.8 7631.65,14284.4C7517.68,14202.3 7777.86,13089 7806.12,13052.5C8026.15,12746.9 8207.11,12356.4 8685.69,12270Z" style="fill:#275175;"/>
        <g id="leftcollarclop">
            <clipPath id="_clip19">
                <path d="M8685.69,12270C8681.01,12353.3 8674.53,12430.2 8665.89,12498.6C8363.22,12592.1 8172.36,12800.2 8111.5,13142C9196.69,14213.3 10303.3,14819.2 11426.7,15068.4L10946.8,16412.3C10946.8,16597.6 8155.07,15089.8 7631.65,14284.4C7517.68,14202.3 7777.86,13089 7806.12,13052.5C8026.15,12746.9 8207.11,12356.4 8685.69,12270Z"/>
            </clipPath>
            <g clip-path="url(#_clip19)">
                <g opacity="0.5">
                    <g id="leftcollarshadow" opacity="0.5">
                        <g style="filter:url(#_Effect20);">
                            <g>
                                <path d="M20000.2,20264.1C19207.4,18675.6 17869.1,16796.4 15785.6,16149.3C14715.6,15816.9 13107,12522.6 11513.8,12575.9C10005.5,12626.3 8510.86,16005 7499.85,16381.5C5429.39,17152.7 4087.08,18978.1 3313.92,20595.9C2492.15,22315.8 2568.49,26701.6 2568.49,26701.6C2568.49,28478 4846.91,30019.8 6381.7,30019.8L16932.4,29754.4C18467.4,29754.4 21118.3,28610.9 21118.3,26834.3C21118.3,26834.3 20889,22044.8 20000.2,20264.1Z" style="fill:url(#_Linear21);"/>
                            </g>
                        </g>
                    </g>
                    <path id="leftcollarhilight" d="M7581.41,14210.1L7796.94,13005.1C8038.4,11486 14167.7,10901.2 15115.3,13005.1L15292.8,14248.1L15039.1,14539.7L14899.6,13131.9C12875.8,10281.1 10561.3,10345.9 7974.48,13144.7L7809.55,14463.8L7581.41,14210.1Z" style="fill:#fcb879;"/>
                </g>
            </g>
        </g>
        <path id="leftcollar1" serif:id="leftcollar" d="M8685.69,12270C8681.01,12353.3 8674.53,12430.2 8665.89,12498.6C8363.22,12592.1 8172.36,12800.2 8111.5,13142C9196.69,14213.3 10303.3,14819.2 11426.7,15068.4L10946.8,16412.3C10946.8,16597.6 8155.07,15089.8 7631.65,14284.4C7517.68,14202.3 7777.86,13089 7806.12,13052.5C8026.15,12746.9 8207.11,12356.4 8685.69,12270Z" style="fill:none;stroke:#000;stroke-width:59.96px;"/>
    </g>
    <path id="mouthorange" d="M13859.8,6057.11L8672.62,6057.11L8672.62,9120.57L13859.8,9120.57L13859.8,6057.11ZM11415.9,8209.33C11528.5,8209.33 11639.9,8191.72 11715.7,8190.49C11831.1,8188.63 11904.2,8143.55 11904.2,8146.75C11904.2,8150.22 11814.8,8204.43 11679.7,8206.2C11602.1,8207.21 11516.2,8222.88 11416.6,8222.88C11330.6,8222.88 11239.1,8207.08 11168.6,8206.3C11015.5,8204.62 10915.3,8150.49 10915.3,8146.75C10915.3,8143.39 11013.7,8189.11 11131.4,8191.14C11204,8192.4 11310.9,8209.33 11415.9,8209.33Z" style="fill:#ff8e74;"/>
    <path id="mouthred" d="M13986.5,6020.16L8514.26,6020.16L8514.26,9157.52L13986.5,9157.52L13986.5,6020.16ZM11413.3,8209.31C11532.1,8209.31 11649.7,8196.27 11729.7,8195.02C11851.4,8193.11 11928.5,8143.61 11928.5,8146.9C11928.5,8150.45 11834.2,8209.3 11691.7,8211.11C11609.8,8212.15 11519.2,8223.19 11414.1,8223.19C11323.4,8223.19 11226.9,8212.01 11152.5,8211.21C10990.9,8209.49 10885.2,8150.73 10885.2,8146.9C10885.2,8143.46 10989.1,8193.61 11113.3,8195.69C11189.9,8196.97 11302.6,8209.31 11413.3,8209.31Z" style="fill:url(#_Radial22);"/>
    <g id="upperteeth">
        <path id="lo2" d="M11122.3,8276.47C11104.5,7825.06 11408.6,7855.92 11423.5,8262.42C11425.4,8313.84 11124.3,8328.28 11122.3,8276.47Z" style="fill:url(#_Radial23);stroke:#4a0017;stroke-width:8.33px;"/>
        <path id="lo3" d="M10819.5,8216.11C10855.5,7791.64 11139,7856.42 11105.5,8238.51C11101.3,8286.84 10815.4,8264.82 10819.5,8216.11Z" style="fill:url(#_Radial24);stroke:#4a0017;stroke-width:8.33px;"/>
        <path id="lo4" d="M10595.7,8155.44C10613.5,7722.29 10867,7785.76 10814.5,8167.37C10808.1,8214.31 10784.9,8199.89 10788.4,8232.33C10790.6,8253.46 10594.3,8189.04 10595.7,8155.44Z" style="fill:url(#_Radial25);stroke:#4a0017;stroke-width:8.33px;"/>
        <path id="lo5" d="M10345.8,8051.2C10293.8,7890.07 10337.6,7820.64 10363.9,7771.28C10392.6,7717.43 10613.4,7714.42 10648.1,7785.15C10686.1,7862.7 10697.2,7965.59 10626.5,8103.65C10599.8,8155.74 10517.5,8062.78 10491,8058C10471.2,8054.45 10361.2,8098.62 10345.8,8051.2Z" style="fill:url(#_Radial26);stroke:#4a0017;stroke-width:8.33px;"/>
        <path id="lo6" d="M10427.9,7899.11C10519.1,7725.3 10489,7632.97 10468.2,7571.61C10445.5,7504.65 10191.4,7458.78 10137.7,7532.81C10078.8,7613.97 10045,7676.43 10099.9,7847.53C10120.6,7912.08 10274.5,7879.31 10306.1,7878.97C10329.5,7878.71 10401.1,7950.27 10427.9,7899.11Z" style="fill:url(#_Radial27);stroke:#4a0017;stroke-width:8.33px;"/>
        <path id="lo7" d="M10196.6,7757.19C10298,7554.05 10291.8,7390.99 10268.9,7319.41C10243.9,7241.3 9962.59,7188.4 9902.93,7274.94C9837.5,7369.84 9799.86,7442.84 9860.22,7642.45C9882.99,7717.76 10042.6,7726.09 10077.6,7725.61C10103.5,7725.25 10166.8,7816.98 10196.6,7757.19Z" style="fill:url(#_Radial28);stroke:#4a0017;stroke-width:8.33px;"/>
        <path id="ro2" d="M11735.9,8276.47C11753.7,7825.06 11449.6,7855.92 11434.7,8262.42C11432.8,8313.84 11733.8,8328.28 11735.9,8276.47Z" style="fill:url(#_Radial29);stroke:#4a0017;stroke-width:8.33px;"/>
        <path id="ro3" d="M12038.7,8216.11C12002.7,7791.64 11719.2,7856.42 11752.7,8238.51C11756.9,8286.84 12042.8,8264.82 12038.7,8216.11Z" style="fill:url(#_Radial30);stroke:#4a0017;stroke-width:8.33px;"/>
        <path id="ro4" d="M12262.5,8155.44C12244.6,7722.29 11991.1,7785.76 12043.6,8167.37C12050.1,8214.31 12073.3,8199.89 12069.8,8232.33C12067.6,8253.46 12263.9,8189.04 12262.5,8155.44Z" style="fill:url(#_Radial31);stroke:#4a0017;stroke-width:8.33px;"/>
        <path id="ro5" d="M12512.7,8048.88C12564.7,7887.75 12520.9,7818.32 12494.6,7768.96C12465.9,7715.11 12245.2,7712.1 12210.5,7782.83C12172.5,7860.39 12161.4,7963.27 12232.1,8101.34C12258.8,8153.42 12341,8060.46 12367.6,8055.68C12387.3,8052.13 12497.4,8096.3 12512.7,8048.88Z" style="fill:url(#_Radial32);stroke:#4a0017;stroke-width:8.33px;"/>
        <path id="ro6" d="M12430.2,7899.35C12339,7725.54 12369.1,7633.21 12389.9,7571.85C12412.6,7504.89 12666.7,7459.03 12720.4,7533.05C12779.3,7614.21 12813.1,7676.67 12758.2,7847.77C12737.5,7912.32 12583.6,7879.55 12552,7879.21C12528.6,7878.95 12457,7950.51 12430.2,7899.35Z" style="fill:url(#_Radial33);stroke:#4a0017;stroke-width:8.33px;"/>
        <path id="ro7" d="M12662.3,7756.57C12560.9,7553.43 12567.1,7390.37 12590,7318.79C12615,7240.68 12896.3,7187.77 12956,7274.32C13021.4,7369.22 13059.1,7442.22 12998.7,7641.83C12975.9,7717.13 12816.3,7725.46 12781.4,7724.98C12755.4,7724.63 12692.2,7816.36 12662.3,7756.57Z" style="fill:url(#_Radial34);stroke:#4a0017;stroke-width:8.33px;"/>
        <path id="uc" d="M10379.8,8049.33C10417.4,8044.43 10466.8,8031.95 10484.3,8004.08C10500.6,8042.53 10531.5,8060.43 10565.1,8064.41C10539.4,8067.49 10513.4,8069.92 10477.9,8045.31C10447.3,8062.77 10414.2,8061.23 10379.8,8049.33ZM12456.9,8047.01C12419.3,8042.12 12369.9,8029.64 12352.4,8001.76C12336.1,8040.22 12305.2,8058.11 12271.7,8062.09C12300.2,8066.46 12328.7,8073.5 12357.2,8031.96C12394.3,8048.56 12425.8,8048.17 12456.9,8047.01ZM12461.6,7880.74C12504,7867.93 12523.4,7817.22 12538.2,7782.06C12564.5,7822.79 12595.4,7868.93 12634.9,7867.02C12603.7,7867.45 12572.9,7864.77 12543.7,7851.48C12524.1,7878.02 12494.8,7883.58 12461.6,7880.74ZM10374.6,7880.5C10332.2,7867.69 10312.8,7816.98 10298,7781.82C10271.8,7822.55 10240.8,7868.68 10201.4,7866.77C10230.5,7873.68 10260.7,7873.96 10295.7,7841.62C10322,7877.34 10348.3,7882.06 10374.6,7880.5ZM10135.8,7712.05C10094.8,7683.74 10090.3,7620.55 10085.8,7576.3C10045,7613.28 9997.56,7654.78 9956.26,7639.64C9979.95,7652.12 10005.8,7662.47 10063,7641.42C10076.6,7693.08 10106.4,7702.12 10135.8,7712.05ZM12701.2,7711.43C12742.2,7683.12 12746.7,7619.93 12751.3,7575.68C12792.1,7612.65 12839.5,7654.16 12880.8,7639.02C12846.4,7652.3 12811.2,7662.64 12766.9,7638.48C12768.4,7683.73 12737.1,7699.59 12701.2,7711.43Z" style="fill:#5e0000;fill-opacity:0.18;"/>
        <path id="ucl" d="M10380.3,8053.46C10403.3,8050.47 10430.5,8044.68 10452.5,8034.42C10465.1,8028.57 10475.9,8021.24 10483.4,8012.26C10501,8047.81 10531.6,8064.63 10564.6,8068.54C10566.8,8068.82 10568.9,8067.18 10569.2,8064.9C10569.5,8062.61 10567.8,8060.54 10565.5,8060.27C10533.4,8056.45 10503.7,8039.31 10488.1,8002.45C10487.5,8001.03 10486.1,8000.05 10484.6,7999.93C10483,7999.81 10481.6,8000.55 10480.7,8001.87C10474.1,8012.4 10462.6,8020.51 10449,8026.87C10427.8,8036.77 10401.4,8042.31 10379.2,8045.19C10377,8045.49 10375.3,8047.58 10375.6,8049.86C10375.9,8052.14 10378,8053.75 10380.3,8053.46ZM12457.5,8042.88C12435.3,8039.99 12409,8034.45 12387.7,8024.55C12374.1,8018.19 12362.6,8010.09 12356,7999.55C12355.1,7998.24 12353.7,7997.49 12352.1,7997.61C12350.6,7997.73 12349.2,7998.71 12348.6,8000.14C12333,8036.99 12303.3,8054.13 12271.2,8057.95C12268.9,8058.22 12267.2,8060.3 12267.5,8062.58C12267.8,8064.86 12269.9,8066.5 12272.1,8066.23C12305.1,8062.31 12335.7,8045.49 12353.3,8009.94C12360.8,8018.92 12371.7,8026.25 12384.2,8032.1C12406.2,8042.36 12433.4,8048.15 12456.4,8051.14C12458.7,8051.44 12460.8,8049.83 12461.1,8047.54C12461.4,8045.26 12459.8,8043.17 12457.5,8042.88ZM12462.8,7884.73C12485,7878.04 12501.2,7861.56 12513.8,7842.04C12524.3,7825.66 12532.2,7807.17 12539,7790.95C12553.9,7813.77 12570.2,7837.34 12588.7,7852.86C12602.9,7864.77 12618.3,7871.99 12635.1,7871.18C12637.4,7871.07 12639.2,7869.11 12639.1,7866.81C12638.9,7864.52 12637,7862.74 12634.7,7862.85C12619.9,7863.57 12606.5,7856.94 12594.1,7846.48C12574.4,7829.93 12557.3,7803.89 12541.7,7779.8C12540.9,7778.5 12539.4,7777.78 12537.9,7777.91C12536.3,7778.05 12535,7779.02 12534.4,7780.44C12527.1,7797.83 12518.7,7819.07 12506.8,7837.53C12495.3,7855.36 12480.7,7870.64 12460.4,7876.75C12458.2,7877.42 12457,7879.74 12457.6,7881.94C12458.3,7884.15 12460.6,7885.39 12462.8,7884.73ZM10375.8,7876.51C10355.6,7870.4 10340.9,7855.12 10329.5,7837.29C10317.6,7818.82 10309.2,7797.59 10301.9,7780.2C10301.3,7778.78 10299.9,7777.8 10298.4,7777.67C10296.8,7777.53 10295.4,7778.26 10294.5,7779.56C10279,7803.65 10261.9,7829.69 10242.2,7846.24C10229.8,7856.7 10216.3,7863.33 10201.6,7862.61C10199.3,7862.5 10197.3,7864.28 10197.2,7866.57C10197.1,7868.87 10198.9,7870.82 10201.2,7870.93C10218,7871.75 10233.4,7864.53 10247.6,7852.61C10266,7837.1 10282.4,7813.53 10297.2,7790.71C10304,7806.93 10311.9,7825.42 10322.5,7841.79C10335,7861.31 10351.3,7877.8 10373.4,7884.49C10375.6,7885.15 10378,7883.9 10378.6,7881.7C10379.3,7879.5 10378,7877.17 10375.8,7876.51ZM10138.2,7708.62C10118.5,7695.02 10107.7,7672.95 10101.2,7649.05C10094.4,7624.41 10092.2,7597.8 10089.9,7575.88C10089.8,7574.31 10088.7,7572.97 10087.3,7572.41C10085.8,7571.85 10084.1,7572.16 10083,7573.21C10058.8,7595.11 10032.4,7618.68 10006.2,7630.75C9989.61,7638.41 9973.2,7641.41 9957.69,7635.73C9955.53,7634.94 9953.14,7636.05 9952.34,7638.21C9951.55,7640.37 9952.66,7642.76 9954.82,7643.55C9972.35,7649.98 9990.94,7646.97 10009.7,7638.32C10034.3,7626.94 10059.3,7605.71 10082.5,7584.91C10085,7610.23 10088.3,7640.2 10097.9,7666.23C10105.3,7686.09 10116.4,7703.66 10133.5,7715.48C10135.3,7716.78 10137.9,7716.31 10139.2,7714.42C10140.6,7712.52 10140.1,7709.93 10138.2,7708.62ZM12703.6,7714.85C12720.7,7703.04 12731.8,7685.46 12739.2,7665.61C12748.8,7639.58 12752,7609.61 12754.6,7584.29C12777.7,7605.09 12802.7,7626.31 12827.4,7637.69C12846.1,7646.35 12864.7,7649.36 12882.2,7642.93C12884.4,7642.14 12885.5,7639.75 12884.7,7637.59C12883.9,7635.43 12881.5,7634.32 12879.4,7635.11C12863.9,7640.79 12847.5,7637.79 12830.9,7630.13C12804.7,7618.06 12778.2,7594.49 12754.1,7572.59C12752.9,7571.54 12751.3,7571.23 12749.8,7571.79C12748.3,7572.35 12747.3,7573.69 12747.1,7575.25C12744.9,7597.17 12742.7,7623.79 12735.9,7648.43C12729.4,7672.32 12718.6,7694.39 12698.9,7708C12697,7709.31 12696.5,7711.9 12697.8,7713.79C12699.1,7715.69 12701.7,7716.16 12703.6,7714.85Z" style="fill:#4a0017;"/>
    </g>
    <g id="lowerteeth">
        <path id="lu2" d="M11179.8,8115.37C11165.2,8478.4 11413.9,8453.58 11426.1,8126.67C11427.6,8085.32 11181.4,8073.7 11179.8,8115.37Z" style="fill:url(#_Radial35);stroke:#4a0017;stroke-width:8.33px;"/>
        <path id="lu3" d="M10953.5,8153.27C10989.4,8494.33 11203.1,8447.37 11170,8140.34C11165.8,8101.5 10949.4,8114.13 10953.5,8153.27Z" style="fill:url(#_Radial36);stroke:#4a0017;stroke-width:8.33px;"/>
        <path id="lu4" d="M10953.9,8141.55C10984.3,8546.85 10760.7,8525.26 10765.3,8162.77C10765.9,8118.17 10787.3,8128.15 10780.9,8098.51C10776.7,8079.2 10951.6,8110.12 10953.9,8141.55Z" style="fill:url(#_Radial37);stroke:#4a0017;stroke-width:8.33px;"/>
        <path id="lu5" d="M10473.3,8040.83C10406.4,8190.96 10442.7,8264.21 10463.8,8315.65C10486.8,8371.78 10703.8,8403.19 10744.8,8338.81C10789.9,8268.22 10810.8,8169.5 10754.7,8025.97C10733.5,7971.83 10643.5,8051.71 10616.9,8052.93C10597.1,8053.84 10493,7996.64 10473.3,8040.83Z" style="fill:url(#_Radial38);stroke:#4a0017;stroke-width:8.33px;"/>
        <path id="lu6" d="M10501.6,7887.78C10574.9,8073.73 10526.5,8157.98 10493.4,8213.83C10457.3,8274.77 10167.4,8272.38 10119.7,8190.43C10067.3,8100.58 10039.8,8033.56 10128.5,7877.26C10162,7818.3 10327.9,7878.65 10362.9,7884.83C10389,7889.42 10480.1,7833.05 10501.6,7887.78Z" style="fill:url(#_Radial39);stroke:#4a0017;stroke-width:8.33px;"/>
        <path id="lu7" d="M10222,7713.44C10244.8,7935.5 10175.8,8074.98 10125.4,8127.3C10070.5,8184.39 9769.88,8106.14 9743.77,8004.26C9715.14,7892.55 9705.75,7812.22 9842.72,7664.78C9894.4,7609.16 10056.6,7672.47 10091.2,7688.35C10117,7700.15 10215.2,7648.08 10222,7713.44Z" style="fill:url(#_Radial40);stroke:#4a0017;stroke-width:8.33px;"/>
        <path id="ru2" d="M11684.7,8115.37C11699.2,8478.4 11450.5,8453.58 11438.4,8126.67C11436.8,8085.32 11683,8073.7 11684.7,8115.37Z" style="fill:url(#_Radial41);stroke:#4a0017;stroke-width:8.33px;"/>
        <path id="ru3" d="M11910.9,8153.27C11875.1,8494.33 11661.4,8447.37 11694.5,8140.34C11698.7,8101.5 11915,8114.13 11910.9,8153.27Z" style="fill:url(#_Radial42);stroke:#4a0017;stroke-width:8.33px;"/>
        <path id="ru4" d="M11910.5,8141.55C11880.2,8546.85 12103.8,8525.26 12099.1,8162.77C12098.5,8118.17 12077.2,8128.15 12083.6,8098.51C12087.7,8079.2 11912.9,8110.12 11910.5,8141.55Z" style="fill:url(#_Radial43);stroke:#4a0017;stroke-width:8.33px;"/>
        <path id="ru5" d="M12391.1,8040.72C12458.1,8190.85 12421.8,8264.1 12400.7,8315.54C12377.7,8371.67 12160.7,8403.08 12119.6,8338.7C12074.6,8268.11 12053.7,8169.39 12109.8,8025.86C12130.9,7971.71 12221,8051.6 12247.6,8052.82C12267.4,8053.73 12371.4,7996.53 12391.1,8040.72Z" style="fill:url(#_Radial44);stroke:#4a0017;stroke-width:8.33px;"/>
        <path id="ru6" d="M12363,7887.73C12289.8,8073.69 12338.2,8157.94 12371.3,8213.79C12407.4,8274.72 12697.3,8272.33 12745,8190.39C12797.3,8100.54 12824.8,8033.52 12736.1,7877.22C12702.6,7818.25 12536.8,7878.61 12501.8,7884.78C12475.7,7889.37 12384.6,7833 12363,7887.73Z" style="fill:url(#_Radial45);stroke:#4a0017;stroke-width:8.33px;"/>
        <path id="ru7" d="M12640.1,7715.77C12617.6,7937.8 12686.8,8077.38 12737.2,8129.78C12792.3,8186.95 13092.7,8109.15 13118.7,8007.31C13147.2,7895.64 13156.4,7815.33 13019.3,7667.68C12967.5,7611.99 12805.4,7675.05 12770.8,7690.88C12745.1,7702.65 12646.7,7650.43 12640.1,7715.77Z" style="fill:url(#_Radial46);stroke:#4a0017;stroke-width:8.33px;"/>
        <path id="lc" d="M10535.9,8034.27C10566.3,8047.48 10604.6,8070.68 10612.1,8101.54C10635.8,8068.08 10666.5,8057.77 10695.8,8061.5C10668.6,8049.86 10641.4,8047.94 10614.2,8070.78C10594.8,8043.2 10566.2,8036.72 10535.9,8034.27ZM12323.9,8036.56C12293.9,8050.5 12256.1,8074.63 12249.4,8105.68C12224.9,8072.81 12194,8063.25 12164.8,8067.69C12186.7,8055.56 12207.8,8040.61 12244.7,8079.01C12271.3,8034.16 12297.6,8032.17 12323.9,8036.56ZM12440.8,7884.45C12485.1,7885.84 12517,7929.81 12540.3,7959.94C12555.2,7913.8 12573.1,7861.24 12611.7,7852.86C12581.4,7856.41 12551.2,7860.52 12535,7910.7C12510.7,7883.02 12477.1,7880.02 12440.8,7884.45ZM10373.5,7884.69C10329.2,7886.08 10297.3,7930.05 10273.9,7960.18C10259.1,7914.04 10262.3,7869.48 10226.2,7861.1C10262.3,7874.04 10279.1,7879.55 10282.9,7927.32C10315.2,7873.83 10344.3,7880.75 10373.5,7884.69ZM10146.5,7740.4C10097.5,7731.45 10049.7,7772.94 10015.1,7801.01C10012.4,7746.02 10008.3,7683.14 9968.35,7664.63C10012.1,7680.4 10043.3,7703.23 10042,7744.46C10083.4,7719.87 10116.8,7723.87 10146.5,7740.4ZM12668.6,7741.03C12717.5,7732.07 12765.4,7773.56 12799.9,7801.63C12802.6,7746.64 12806.8,7683.76 12846.7,7665.26C12803.3,7677.02 12777.3,7703.69 12777,7752.55C12744.9,7717.92 12706.8,7729.05 12668.6,7741.03Z" style="fill:#5e0000;fill-opacity:0.18;"/>
        <path id="lcl" d="M10537.4,8030.4C10556,8038.46 10577.4,8050.21 10593.3,8065.08C10602.3,8073.56 10609.5,8083.08 10613.6,8093.46C10637.6,8063.1 10667.6,8053.73 10696.4,8057.39C10698.4,8057.64 10699.7,8059.69 10699.4,8061.96C10699,8064.22 10697.1,8065.86 10695.1,8065.61C10667,8062.04 10637.7,8071.91 10614.9,8103.98C10614.1,8105.22 10612.7,8105.86 10611.3,8105.63C10610,8105.4 10609,8104.34 10608.6,8102.89C10605.8,8091.22 10598.2,8080.79 10588.3,8071.58C10573,8057.22 10552.3,8045.93 10534.4,8038.14C10532.5,8037.34 10531.7,8034.96 10532.6,8032.82C10533.4,8030.69 10535.6,8029.6 10537.4,8030.4ZM12325.6,8040.39C12307.8,8048.61 12287.4,8060.41 12272.4,8075.14C12262.8,8084.59 12255.5,8095.2 12252.9,8106.93C12252.6,8108.4 12251.6,8109.48 12250.3,8109.74C12248.9,8110 12247.5,8109.4 12246.6,8108.18C12223.1,8076.68 12193.5,8067.52 12165.5,8071.78C12163.6,8072.08 12161.6,8070.5 12161.2,8068.24C12160.8,8065.98 12162,8063.9 12164,8063.6C12192.7,8059.24 12223,8067.87 12247.7,8097.63C12251.5,8087.15 12258.5,8077.46 12267.3,8068.76C12282.8,8053.51 12304,8041.24 12322.3,8032.73C12324.1,8031.88 12326.4,8032.91 12327.2,8035.03C12328.1,8037.14 12327.4,8039.55 12325.6,8040.39ZM12440.9,7880.29C12464.1,7881.01 12484,7892.73 12501.2,7908.33C12515.6,7921.43 12528.1,7937.24 12538.8,7951.15C12547.3,7925.26 12557,7898.26 12570.8,7878.5C12581.4,7863.32 12594.4,7852.36 12610.8,7848.79C12613.1,7848.3 12615.3,7849.73 12615.8,7851.98C12616.3,7854.23 12614.9,7856.45 12612.6,7856.93C12598.2,7860.07 12586.9,7869.94 12577.6,7883.27C12562.9,7904.34 12553.1,7933.93 12544.3,7961.21C12543.8,7962.69 12542.6,7963.77 12541.1,7964.04C12539.5,7964.31 12538,7963.71 12537.1,7962.49C12525.5,7947.6 12511.9,7929.26 12495.6,7914.5C12479.9,7900.25 12461.8,7889.28 12440.7,7888.62C12438.4,7888.55 12436.6,7886.62 12436.6,7884.32C12436.7,7882.02 12438.6,7880.22 12440.9,7880.29ZM10373.6,7888.86C10352.4,7889.52 10334.3,7900.49 10318.6,7914.74C10302.4,7929.51 10288.8,7947.84 10277.2,7962.74C10276.3,7963.96 10274.7,7964.55 10273.2,7964.28C10271.7,7964.02 10270.4,7962.93 10269.9,7961.46C10261.2,7934.17 10264.8,7912.58 10251.1,7891.51C10242.4,7878.18 10238.9,7868.31 10225.4,7865.17C10223.3,7864.69 10222,7862.47 10222.4,7860.22C10222.9,7857.97 10225,7856.54 10227.1,7857.03C10242.4,7860.6 10247.6,7871.56 10257.5,7886.74C10270.4,7906.5 10267,7925.5 10275.4,7951.39C10286.2,7937.48 10298.6,7921.67 10313,7908.58C10330.2,7892.97 10350.2,7881.26 10373.3,7880.53C10375.6,7880.46 10377.6,7882.27 10377.6,7884.56C10377.7,7886.86 10375.9,7888.79 10373.6,7888.86ZM10145.8,7744.5C10122.2,7740.2 10099,7748.18 10077.5,7760.44C10055.3,7773.09 10034.9,7790.33 10017.8,7804.24C10016.6,7805.23 10014.9,7805.45 10013.4,7804.81C10012,7804.17 10011.1,7802.78 10011,7801.21C10009.4,7768.65 10007.3,7733.27 9997.37,7706.23C9991.06,7689.09 9981.58,7675.36 9966.59,7668.41C9964.51,7667.45 9963.6,7664.97 9964.57,7662.88C9965.53,7660.79 9968.01,7659.89 9970.1,7660.85C9987.04,7668.71 9998.06,7683.98 10005.2,7703.35C10014.6,7728.83 10017.2,7761.52 10018.9,7792.58C10038.6,7776.49 10062.1,7757.58 10087.3,7746C10106.6,7737.16 10126.8,7732.57 10147.3,7736.31C10149.5,7736.72 10151,7738.89 10150.6,7741.15C10150.2,7743.42 10148,7744.92 10145.8,7744.5ZM12667.8,7736.93C12688.2,7733.19 12708.5,7737.78 12727.8,7746.62C12753,7758.2 12776.5,7777.11 12796.2,7793.2C12797.8,7762.14 12800.5,7729.45 12809.9,7703.98C12817,7684.6 12828,7669.33 12845,7661.48C12847.1,7660.51 12849.5,7661.42 12850.5,7663.5C12851.5,7665.59 12850.6,7668.07 12848.5,7669.04C12833.5,7675.98 12824,7689.71 12817.7,7706.86C12807.7,7733.89 12805.7,7769.27 12804.1,7801.83C12804,7803.4 12803.1,7804.79 12801.6,7805.43C12800.2,7806.07 12798.5,7805.85 12797.3,7804.86C12780.2,7790.95 12759.8,7773.71 12737.6,7761.06C12716.1,7748.8 12692.8,7740.82 12669.3,7745.13C12667,7745.54 12664.9,7744.04 12664.5,7741.78C12664,7739.51 12665.5,7737.34 12667.8,7736.93Z" style="fill:#4a0017;"/>
    </g>
    <path id="uppergum" d="M12782.3,7094.32C12747.2,7129.07 12744,7169.62 12754.4,7212.64C12589.6,7224.32 12465.9,7280.44 12457.2,7461.16C12324.5,7477.07 12253.6,7558.14 12237.9,7697.5C12173.9,7673.91 12123.2,7706.46 12091.7,7819.32C12033.9,7801.03 11992.7,7832.73 11967.4,7911.9C11870,7814.85 11790.3,7859.48 11718.9,7970.38C11635.5,7835.41 11543.3,7805.62 11433.8,7982.56C11326.6,7845.95 11232.5,7836.54 11151.2,7953.32C11077.8,7864.28 10998,7832.8 10905.1,7919.21C10879.4,7826.94 10831,7798.7 10766.3,7816.88C10777.5,7721.01 10756,7653.52 10617.6,7687.75C10640.4,7567.18 10577.8,7494.01 10425.2,7470.9C10444.2,7359.64 10405.3,7284.93 10300.9,7251.62C10299.8,7184.45 10278.6,7126.47 10200.4,7094.32L9473.61,7058.32L9253.12,6094.96L13292.8,6123.75L13484.2,7049.32L12782.3,7094.32ZM11450.4,7827.21C11540.6,7700.35 11674.4,7825.22 11672.2,7818.74L11464.6,7200.15C11463.8,7197.77 11460.4,7196.17 11456.9,7196.44C11453.3,7196.72 11450.6,7198.78 11450.6,7201.23L11450.4,7827.21ZM11415,7835.29L11414.9,7201.23C11414.9,7198.78 11412.2,7196.72 11408.6,7196.44C11405,7196.17 11401.7,7197.77 11400.9,7200.15L11198.7,7802.61C11262.4,7731.77 11334.5,7742.48 11415,7835.29ZM11707.1,7816.85C11766.3,7738.24 11918.2,7764.48 11917.3,7763.23L11512.6,7191.59C11511.1,7189.38 11507.3,7188.33 11503.9,7189.14C11500.5,7189.94 11498.5,7192.36 11499.3,7194.75L11706.7,7813.39C11707.1,7814.55 11707.2,7815.71 11707.1,7816.85ZM11160.2,7809.3L11366.1,7194.75C11366.9,7192.36 11365,7189.94 11361.6,7189.14C11358.2,7188.33 11354.4,7189.38 11352.9,7191.59C11352.9,7191.59 10946.4,7765.26 10945.3,7766.1C10949.5,7775.76 10953.3,7786.57 10956.6,7798.59C11032.7,7727.81 11099.1,7745.06 11160.2,7809.3ZM12070.5,7614.28L11556.7,7175.96C11554.4,7174.05 11550.4,7173.59 11547.4,7174.89C11544.3,7176.19 11543.2,7178.85 11544.8,7181.06L11937.7,7736.5C11959.4,7707.17 11987.7,7697.71 12022.8,7708.83C12035.5,7663.59 12051.5,7632.72 12070.5,7614.28ZM10928.2,7735.92L11320.7,7181.06C11322.3,7178.85 11321.1,7176.19 11318.1,7174.89C11315.1,7173.59 11311.1,7174.05 11308.8,7175.96L10811.2,7600.38C10834.2,7621.78 10837.2,7660.56 10831.9,7706.64C10871.3,7695.56 10904,7703.67 10928.2,7735.92ZM12192.7,7478.58L11594.5,7154.06C11591.7,7152.53 11587.6,7152.69 11585.1,7154.42C11582.6,7156.15 11582.3,7158.91 11584.6,7160.82L12096.1,7597.44C12113.7,7590.61 12133.1,7591.61 12154.2,7599.37C12159.6,7551.26 12172.3,7510.88 12192.7,7478.58ZM10783.2,7585.64L11280.9,7160.82C11283.2,7158.91 11282.9,7156.15 11280.4,7154.42C11277.8,7152.69 11273.8,7152.53 11271,7154.06L10681.3,7473.92C10701.6,7504.69 10707.2,7543.65 10698.3,7590.61C10735.2,7581.49 10762.8,7580.41 10783.2,7585.64ZM12352.9,7365.65L11624.2,7126.97C11621,7125.91 11617.1,7126.67 11615.2,7128.75C11613.3,7130.82 11614,7133.55 11616.8,7135.07L12208.9,7456.53C12241.8,7417.95 12288.9,7394.48 12351.2,7387.01C12351.6,7379.67 12352.1,7372.56 12352.9,7365.65ZM10663.6,7452.68L11248.7,7135.07C11251.5,7133.55 11252.2,7130.82 11250.3,7128.75C11248.4,7126.67 11244.5,7125.91 11241.2,7126.97L10529.3,7360.18C10528.8,7371.53 10527.5,7383.4 10525.4,7395.77C10588.4,7405.31 10634.4,7424.36 10663.6,7452.68ZM12432.3,7218.34L11644.4,7096.06C11640.9,7095.52 11637.3,7096.85 11636.1,7099.17C11634.9,7101.48 11636.5,7104.03 11639.7,7105.1L12356.9,7340.2C12368.2,7284.61 12394.7,7245.5 12432.3,7218.34ZM10528.9,7333.53L11225.8,7105.1C11229,7104.03 11230.5,7101.48 11229.4,7099.17C11228.2,7096.85 11224.6,7095.52 11221.1,7096.06L10453,7215.27C10500.1,7240.94 10524.9,7280.71 10528.9,7333.53Z" style="fill:#ffa446;fill-opacity:0.1;"/>
    <path id="tounge" d="M9614.14,9187.94C10762.1,8759.88 11046.4,7878.83 11421.4,8258.98C11843.9,7857 12110.1,8780.94 13474.8,9188.08L13513,9612.13L9319.8,9596.56L9614.14,9187.94Z" style="fill:url(#_Radial47);stroke:#000;stroke-width:8.33px;"/>
    <path id="toungeline" d="M11423.6,8257.77C11423.6,8257.77 11178.9,8518.59 11267,8675.21" style="fill:none;stroke:#4a0017;stroke-width:8.33px;"/>
    <defs>
        <linearGradient id="_Linear1" x1="0" y1="0" x2="1" y2="0" gradientUnits="userSpaceOnUse" gradientTransform="matrix(1.45134e-13,2370.22,-2370.22,1.45134e-13,11146.6,6594.55)"><stop offset="0" style="stop-color:#f96646;stop-opacity:1"/><stop offset="0.06" style="stop-color:#f8b86f;stop-opacity:1"/><stop offset="0.83" style="stop-color:#f78660;stop-opacity:1"/><stop offset="0.9" style="stop-color:#f38460;stop-opacity:1"/><stop offset="0.94" style="stop-color:#db7960;stop-opacity:1"/><stop offset="1" style="stop-color:#db7960;stop-opacity:1"/></linearGradient>
        <linearGradient id="_Linear3" x1="0" y1="0" x2="1" y2="0" gradientUnits="userSpaceOnUse" gradientTransform="matrix(175.613,-8202.97,8202.97,175.613,11270.9,15332.2)"><stop offset="0" style="stop-color:#6c2500;stop-opacity:0.5"/><stop offset="1" style="stop-color:#4c1300;stop-opacity:0"/></linearGradient>
        <filter id="_Effect5" filterUnits="userSpaceOnUse" x="2533.76" y="12542.4" width="18617.4" height="17510.3">
            <feGaussianBlur in="SourceGraphic" stdDeviation="5.47619"/>
        </filter>
        <linearGradient id="_Linear6" x1="0" y1="0" x2="1" y2="0" gradientUnits="userSpaceOnUse" gradientTransform="matrix(-74.293,-19080.4,19080.4,-74.293,11769.9,26920.7)"><stop offset="0" style="stop-color:#6c2500;stop-opacity:1"/><stop offset="1" style="stop-color:#4c1300;stop-opacity:0"/></linearGradient>
        <linearGradient id="_Linear8" x1="0" y1="0" x2="1" y2="0" gradientUnits="userSpaceOnUse" gradientTransform="matrix(175.613,-8202.97,8202.97,175.613,11270.9,15332.2)"><stop offset="0" style="stop-color:#6c2500;stop-opacity:0.5"/><stop offset="1" style="stop-color:#4c1300;stop-opacity:0"/></linearGradient>
        <linearGradient id="_Linear9" x1="0" y1="0" x2="1" y2="0" gradientUnits="userSpaceOnUse" gradientTransform="matrix(50.4679,958.266,-958.266,50.4679,11417.1,6046.89)"><stop offset="0" style="stop-color:#6c2500;stop-opacity:0.5"/><stop offset="1" style="stop-color:#4c1300;stop-opacity:0"/></linearGradient>
        <linearGradient id="_Linear10" x1="0" y1="0" x2="1" y2="0" gradientUnits="userSpaceOnUse" gradientTransform="matrix(60.0874,-5396.23,5396.23,60.0874,11397.3,7726.62)"><stop offset="0" style="stop-color:#6c2500;stop-opacity:0.5"/><stop offset="1" style="stop-color:#4c1300;stop-opacity:0"/></linearGradient>
        <linearGradient id="_Linear11" x1="0" y1="0" x2="1" y2="0" gradientUnits="userSpaceOnUse" gradientTransform="matrix(99.606,3955.26,-3955.26,99.606,11398.1,3947.08)"><stop offset="0" style="stop-color:#6c2500;stop-opacity:0.5"/><stop offset="1" style="stop-color:#4c1300;stop-opacity:0"/></linearGradient>
        <filter id="_Effect17" filterUnits="userSpaceOnUse" x="2533.76" y="12542.4" width="18617.4" height="17510.3">
            <feGaussianBlur in="SourceGraphic" stdDeviation="5.47619"/>
        </filter>
        <linearGradient id="_Linear18" x1="0" y1="0" x2="1" y2="0" gradientUnits="userSpaceOnUse" gradientTransform="matrix(-74.293,-19080.4,19080.4,-74.293,11769.9,26920.7)"><stop offset="0" style="stop-color:#6c2500;stop-opacity:1"/><stop offset="1" style="stop-color:#4c1300;stop-opacity:0"/></linearGradient>
        <filter id="_Effect20" filterUnits="userSpaceOnUse" x="2533.76" y="12542.4" width="18617.4" height="17510.3">
            <feGaussianBlur in="SourceGraphic" stdDeviation="5.47619"/>
        </filter>
        <linearGradient id="_Linear21" x1="0" y1="0" x2="1" y2="0" gradientUnits="userSpaceOnUse" gradientTransform="matrix(-74.293,-19080.4,19080.4,-74.293,11769.9,26920.7)"><stop offset="0" style="stop-color:#6c2500;stop-opacity:1"/><stop offset="1" style="stop-color:#4c1300;stop-opacity:0"/></linearGradient>
        <radialGradient id="_Radial22" cx="0" cy="0" r="1" gradientUnits="userSpaceOnUse" gradientTransform="matrix(5213.27,-22.5217,12.9121,2988.87,11452.6,8028.72)"><stop offset="0" style="stop-color:#970604;stop-opacity:1"/><stop offset="1" style="stop-color:#000;stop-opacity:1"/></radialGradient>
        <radialGradient id="_Radial23" cx="0" cy="0" r="1" gradientUnits="userSpaceOnUse" gradientTransform="matrix(4290.71,-35.1424,23.6068,2882.28,11459.7,8736.69)"><stop offset="0" style="stop-color:#fff4ea;stop-opacity:1"/><stop offset="1" style="stop-color:#681600;stop-opacity:1"/></radialGradient>
        <radialGradient id="_Radial24" cx="0" cy="0" r="1" gradientUnits="userSpaceOnUse" gradientTransform="matrix(4290.71,-35.1424,23.6068,2882.28,11459.7,8736.69)"><stop offset="0" style="stop-color:#fff4ea;stop-opacity:1"/><stop offset="1" style="stop-color:#681600;stop-opacity:1"/></radialGradient>
        <radialGradient id="_Radial25" cx="0" cy="0" r="1" gradientUnits="userSpaceOnUse" gradientTransform="matrix(4290.71,-35.1424,23.6068,2882.28,11459.7,8736.69)"><stop offset="0" style="stop-color:#fff4ea;stop-opacity:1"/><stop offset="1" style="stop-color:#681600;stop-opacity:1"/></radialGradient>
        <radialGradient id="_Radial26" cx="0" cy="0" r="1" gradientUnits="userSpaceOnUse" gradientTransform="matrix(4290.71,-35.1424,23.6068,2882.28,11459.7,8736.69)"><stop offset="0" style="stop-color:#fff4ea;stop-opacity:1"/><stop offset="1" style="stop-color:#681600;stop-opacity:1"/></radialGradient>
        <radialGradient id="_Radial27" cx="0" cy="0" r="1" gradientUnits="userSpaceOnUse" gradientTransform="matrix(4290.71,-35.1424,23.6068,2882.28,11459.7,8736.69)"><stop offset="0" style="stop-color:#fff4ea;stop-opacity:1"/><stop offset="1" style="stop-color:#681600;stop-opacity:1"/></radialGradient>
        <radialGradient id="_Radial28" cx="0" cy="0" r="1" gradientUnits="userSpaceOnUse" gradientTransform="matrix(4290.71,-35.1424,23.6068,2882.28,11459.7,8736.69)"><stop offset="0" style="stop-color:#fff4ea;stop-opacity:1"/><stop offset="1" style="stop-color:#681600;stop-opacity:1"/></radialGradient>
        <radialGradient id="_Radial29" cx="0" cy="0" r="1" gradientUnits="userSpaceOnUse" gradientTransform="matrix(4290.71,-35.1424,23.6068,2882.28,11459.7,8736.69)"><stop offset="0" style="stop-color:#fff4ea;stop-opacity:1"/><stop offset="1" style="stop-color:#681600;stop-opacity:1"/></radialGradient>
        <radialGradient id="_Radial30" cx="0" cy="0" r="1" gradientUnits="userSpaceOnUse" gradientTransform="matrix(4290.71,-35.1424,23.6068,2882.28,11459.7,8736.69)"><stop offset="0" style="stop-color:#fff4ea;stop-opacity:1"/><stop offset="1" style="stop-color:#681600;stop-opacity:1"/></radialGradient>
        <radialGradient id="_Radial31" cx="0" cy="0" r="1" gradientUnits="userSpaceOnUse" gradientTransform="matrix(4290.71,-35.1424,23.6068,2882.28,11459.7,8736.69)"><stop offset="0" style="stop-color:#fff4ea;stop-opacity:1"/><stop offset="1" style="stop-color:#681600;stop-opacity:1"/></radialGradient>
        <radialGradient id="_Radial32" cx="0" cy="0" r="1" gradientUnits="userSpaceOnUse" gradientTransform="matrix(4290.71,-35.1424,23.6068,2882.28,11459.7,8736.69)"><stop offset="0" style="stop-color:#fff4ea;stop-opacity:1"/><stop offset="1" style="stop-color:#681600;stop-opacity:1"/></radialGradient>
        <radialGradient id="_Radial33" cx="0" cy="0" r="1" gradientUnits="userSpaceOnUse" gradientTransform="matrix(4290.71,-35.1424,23.6068,2882.28,11459.7,8736.69)"><stop offset="0" style="stop-color:#fff4ea;stop-opacity:1"/><stop offset="1" style="stop-color:#681600;stop-opacity:1"/></radialGradient>
        <radialGradient id="_Radial34" cx="0" cy="0" r="1" gradientUnits="userSpaceOnUse" gradientTransform="matrix(4290.71,-35.1424,23.6068,2882.28,11459.7,8736.69)"><stop offset="0" style="stop-color:#fff4ea;stop-opacity:1"/><stop offset="1" style="stop-color:#681600;stop-opacity:1"/></radialGradient>
        <radialGradient id="_Radial35" cx="0" cy="0" r="1" gradientUnits="userSpaceOnUse" gradientTransform="matrix(4290.71,-35.1424,23.6068,2882.28,11448.8,7580.66)"><stop offset="0" style="stop-color:#fff4ea;stop-opacity:1"/><stop offset="1" style="stop-color:#681600;stop-opacity:1"/></radialGradient>
        <radialGradient id="_Radial36" cx="0" cy="0" r="1" gradientUnits="userSpaceOnUse" gradientTransform="matrix(4290.71,-35.1424,23.6068,2882.28,11448.8,7580.66)"><stop offset="0" style="stop-color:#fff4ea;stop-opacity:1"/><stop offset="1" style="stop-color:#681600;stop-opacity:1"/></radialGradient>
        <radialGradient id="_Radial37" cx="0" cy="0" r="1" gradientUnits="userSpaceOnUse" gradientTransform="matrix(4290.71,-35.1424,23.6068,2882.28,11448.8,7580.66)"><stop offset="0" style="stop-color:#fff4ea;stop-opacity:1"/><stop offset="1" style="stop-color:#681600;stop-opacity:1"/></radialGradient>
        <radialGradient id="_Radial38" cx="0" cy="0" r="1" gradientUnits="userSpaceOnUse" gradientTransform="matrix(4290.71,-35.1424,23.6068,2882.28,11448.8,7528.66)"><stop offset="0" style="stop-color:#fff4ea;stop-opacity:1"/><stop offset="1" style="stop-color:#681600;stop-opacity:1"/></radialGradient>
        <radialGradient id="_Radial39" cx="0" cy="0" r="1" gradientUnits="userSpaceOnUse" gradientTransform="matrix(4290.71,-35.1424,23.6068,2882.28,11448.8,7430.66)"><stop offset="0" style="stop-color:#fff4ea;stop-opacity:1"/><stop offset="1" style="stop-color:#681600;stop-opacity:1"/></radialGradient>
        <radialGradient id="_Radial40" cx="0" cy="0" r="1" gradientUnits="userSpaceOnUse" gradientTransform="matrix(4290.71,-35.1424,23.6068,2882.28,11448.8,7374.66)"><stop offset="0" style="stop-color:#fff4ea;stop-opacity:1"/><stop offset="1" style="stop-color:#681600;stop-opacity:1"/></radialGradient>
        <radialGradient id="_Radial41" cx="0" cy="0" r="1" gradientUnits="userSpaceOnUse" gradientTransform="matrix(4290.71,-35.1424,23.6068,2882.28,11448.8,7580.66)"><stop offset="0" style="stop-color:#fff4ea;stop-opacity:1"/><stop offset="1" style="stop-color:#681600;stop-opacity:1"/></radialGradient>
        <radialGradient id="_Radial42" cx="0" cy="0" r="1" gradientUnits="userSpaceOnUse" gradientTransform="matrix(4290.71,-35.1424,23.6068,2882.28,11448.8,7580.66)"><stop offset="0" style="stop-color:#fff4ea;stop-opacity:1"/><stop offset="1" style="stop-color:#681600;stop-opacity:1"/></radialGradient>
        <radialGradient id="_Radial43" cx="0" cy="0" r="1" gradientUnits="userSpaceOnUse" gradientTransform="matrix(4290.71,-35.1424,23.6068,2882.28,11448.8,7580.66)"><stop offset="0" style="stop-color:#fff4ea;stop-opacity:1"/><stop offset="1" style="stop-color:#681600;stop-opacity:1"/></radialGradient>
        <radialGradient id="_Radial44" cx="0" cy="0" r="1" gradientUnits="userSpaceOnUse" gradientTransform="matrix(4290.71,-35.1424,23.6068,2882.28,11448.8,7528.66)"><stop offset="0" style="stop-color:#fff4ea;stop-opacity:1"/><stop offset="1" style="stop-color:#681600;stop-opacity:1"/></radialGradient>
        <radialGradient id="_Radial45" cx="0" cy="0" r="1" gradientUnits="userSpaceOnUse" gradientTransform="matrix(4290.71,-35.1424,23.6068,2882.28,11448.8,7430.66)"><stop offset="0" style="stop-color:#fff4ea;stop-opacity:1"/><stop offset="1" style="stop-color:#681600;stop-opacity:1"/></radialGradient>
        <radialGradient id="_Radial46" cx="0" cy="0" r="1" gradientUnits="userSpaceOnUse" gradientTransform="matrix(4290.71,-35.1424,23.6068,2882.28,11448.8,7374.66)"><stop offset="0" style="stop-color:#fff4ea;stop-opacity:1"/><stop offset="1" style="stop-color:#681600;stop-opacity:1"/></radialGradient>
        <radialGradient id="_Radial47" cx="0" cy="0" r="1" gradientUnits="userSpaceOnUse" gradientTransform="matrix(3506.62,0,0,912.851,11408.3,8259.82)"><stop offset="0" style="stop-color:#ff8e74;stop-opacity:1"/><stop offset="1" style="stop-color:#930504;stop-opacity:1"/></radialGradient>
    </defs>
</svg>
