<?xml version="1.0" encoding="UTF-8" standalone="no"?>
<svg width="100%" height="100%" viewBox="0 0 56 135" version="1.1" xmlns="http://www.w3.org/2000/svg" xmlns:xlink="http://www.w3.org/1999/xlink" xml:space="preserve" xmlns:serif="http://www.serif.com/" style="fill-rule:evenodd;clip-rule:evenodd;stroke-linecap:round;stroke-linejoin:round;stroke-miterlimit:1.5;">
                <path id="animateMe" d="M2.951,73.043C-2.66,70.151 5.919,20.035 5.919,15.038C5.919,7.315 12.186,1.048 19.91,1.048C27.633,1.048 33.907,7.315 33.907,15.038C33.907,26.972 27.695,52.461 21.456,62.366C27.274,62.366 54.869,92.555 54.869,99.803C54.869,116.091 54.869,123.235 50.582,133.574C48.601,128.439 46.772,122.504 47.331,116.091C45.979,121.586 45.033,126.914 41.782,132.091C39.677,127.39 39.311,122.062 39.753,116.091C37.807,121.102 34.549,125.775 31.015,130.144C31.015,112.351 34.369,104.793 36.833,97.187C31.015,97.187 21.2,82.458 2.951,73.043Z" style="fill:#739737;stroke:#004238;stroke-width:2.08px;"/>
</svg>
