<?xml version="1.0" encoding="UTF-8" standalone="no"?>
<svg width="100%" height="100%" viewBox="0 0 56 135" version="1.1" xmlns="http://www.w3.org/2000/svg" xmlns:xlink="http://www.w3.org/1999/xlink" xml:space="preserve" xmlns:serif="http://www.serif.com/" style="fill-rule:evenodd;clip-rule:evenodd;stroke-linecap:round;stroke-linejoin:round;stroke-miterlimit:1.5;">
    <g id="t1" transform="matrix(1,0,0,1,-1683.88,-1409.23)">
        <g id="t2" transform="matrix(-0.690208,0,0,0.690208,3186.66,442.606)">
            <g id="t3" transform="matrix(-1,0,0,1,3548.86,100)">
                <path id="animateMe" d="M1375.85,1406.31C1367.72,1402.12 1380.15,1329.51 1380.15,1322.27C1380.15,1311.08 1389.23,1302 1400.42,1302C1411.61,1302 1420.7,1311.08 1420.7,1322.27C1420.7,1339.56 1411.7,1376.49 1402.66,1390.84C1411.09,1390.84 1451.07,1434.58 1451.07,1445.08C1451.07,1468.68 1451.07,1479.03 1444.86,1494.01C1441.99,1486.57 1439.34,1477.97 1440.15,1468.68C1438.19,1476.64 1436.82,1484.36 1432.11,1491.86C1429.06,1485.05 1428.53,1477.33 1429.17,1468.68C1426.35,1475.94 1421.63,1482.71 1416.51,1489.04C1416.51,1463.26 1421.37,1452.31 1424.94,1441.29C1416.51,1441.29 1402.29,1419.95 1375.85,1406.31Z" style="fill:rgb(115,151,55);stroke:rgb(0,66,56);stroke-width:3.02px;"/>
            </g>
        </g>
    </g>
</svg>
