<?xml version="1.0" encoding="UTF-8" standalone="no"?>
<svg width="100%" height="100%" viewBox="0 0 80 148" version="1.1" xmlns="http://www.w3.org/2000/svg" xmlns:xlink="http://www.w3.org/1999/xlink" xml:space="preserve" xmlns:serif="http://www.serif.com/" style="fill-rule:evenodd;clip-rule:evenodd;stroke-linecap:round;stroke-linejoin:round;stroke-miterlimit:1.5;">
    <g id="t1" transform="matrix(1,0,0,1,-1637.42,-1494.53)">
        <g id="t2" transform="matrix(-0.690208,0,0,0.690208,3170.78,428.112)">
            <g id="t3" transform="matrix(1,0,0,1,15.0126,6.85608)">
                <path id="animateMe" d="M2143.67,1551.05C2169,1527.55 2202.55,1542.78 2204.87,1576.94C2208.07,1624.15 2171.83,1642.7 2150.98,1656.63C2181.91,1659.13 2167.79,1697.29 2171.03,1712.04C2173,1721.02 2186.81,1737.98 2179.58,1743.23C2170.84,1749.58 2149.36,1749.69 2117.51,1749.86C2111.73,1752.63 2101.55,1748.77 2094.13,1745.56C2098.76,1741.25 2102.04,1739.81 2111.29,1739.07C2103.62,1739.34 2098.84,1735.47 2092.48,1731.08C2098.56,1725.92 2104.88,1728.1 2113.69,1729.14C2107.38,1726.67 2101.22,1722.18 2095.15,1719.23C2101.54,1718.14 2111.32,1716.29 2116.29,1720.14C2116.29,1720.14 2142.34,1716.86 2149.12,1717.59C2139.44,1682.72 2099.96,1671.61 2099.46,1646.65C2098.59,1604.12 2119.25,1573.71 2143.67,1551.05Z" style="fill:rgb(115,151,55);stroke:rgb(0,66,56);stroke-width:3.02px;"/>
            </g>
        </g>
    </g>
</svg>
