<?xml version="1.0" encoding="UTF-8" standalone="no"?>
<!DOCTYPE svg PUBLIC "-//W3C//DTD SVG 1.1//EN" "http://www.w3.org/Graphics/SVG/1.1/DTD/svg11.dtd">
<svg width="100%" height="100%" viewBox="0 0 24381 25790" version="1.1" xmlns="http://www.w3.org/2000/svg" xmlns:xlink="http://www.w3.org/1999/xlink" xml:space="preserve" xmlns:serif="http://www.serif.com/" style="fill-rule:evenodd;clip-rule:evenodd;stroke-linecap:round;stroke-linejoin:round;stroke-miterlimit:1.5;">
    <rect x="0" y="0" width="24380.2" height="25789.1" style="fill:#ebebeb;"/>
    <g id="hintergrund">
        <rect x="9495.7" y="6430" width="3825" height="2506" style="fill:url(#_Linear1);"/>
        <circle cx="11420.7" cy="8772" r="197" style="fill:#f9e4b4;"/>
        <circle cx="11420.7" cy="8772" r="204" style="fill:#f9e4b4;fill-opacity:0.15;"/>
        <circle cx="11420.7" cy="8772" r="200" style="fill:#f9e4b4;fill-opacity:0.2;"/>
        <circle cx="11420.7" cy="8772" r="207" style="fill:#f9e4b4;fill-opacity:0.15;"/>
        <circle cx="11420.7" cy="8772" r="199" style="fill:#f9e4b4;fill-opacity:0.5;"/>
        <path d="M9294.7,8769L9396.7,8697L9455.7,8762C9455.7,8762 10608,8662 10972.7,8693C11211.1,8713.27 13417.7,9099 13417.7,9099L13419.7,9134.55L9404.7,9145L9294.7,8769Z" style="fill:#f9835c;fill-opacity:0.15;"/>
        <path d="M9290.7,8773L9392.7,8701L9451.7,8766C9451.7,8766 10604,8666 10968.7,8697C11207.1,8717.27 13413.7,9103 13413.7,9103L13415.7,9138.55L9400.7,9149L9290.7,8773Z" style="fill:#f9835c;fill-opacity:0.41;"/>
        <path d="M9289.7,8776L9391.7,8704L9450.7,8769C9450.7,8769 10603,8669 10967.7,8700C11206.1,8720.27 13412.7,9106 13412.7,9106L13414.7,9141.55L9399.7,9152L9289.7,8776Z" style="fill:#f9835c;fill-opacity:0.41;"/>
        <path d="M9286.7,8775L9388.7,8703L9447.7,8768C9447.7,8768 10600,8668 10964.7,8699C11203.1,8719.27 13409.7,9105 13409.7,9105L13411.7,9140.55L9396.7,9151L9286.7,8775Z" style="fill:#f9835c;fill-opacity:0.41;"/>
        <path d="M9215.7,9067C9215.7,9067 11282.7,8809.33 11620.7,8774C11807.3,8754.5 12062.9,8759.5 12182.7,8745C12238.1,8738.3 12288.7,8688.17 12339.7,8687C12390.7,8685.83 12436.2,8736.69 12488.7,8738C12562.2,8739.83 12718,8692.5 12780.7,8698C12817.6,8701.24 12827.9,8775.41 12864.7,8771C12960.7,8759.5 13356.7,8629 13356.7,8629L13363.7,9158L9204.7,9344L9215.7,9067Z" style="fill:#de7a61;fill-opacity:0.15;"/>
        <path d="M9212.7,9072C9212.7,9072 11279.7,8814.33 11617.7,8779C11804.3,8759.5 12059.9,8764.5 12179.7,8750C12235.1,8743.3 12285.7,8693.17 12336.7,8692C12387.7,8690.83 12433.2,8741.69 12485.7,8743C12559.2,8744.83 12715,8697.5 12777.7,8703C12814.6,8706.24 12824.9,8780.41 12861.7,8776C12957.7,8764.5 13353.7,8634 13353.7,8634L13360.7,9163L9201.7,9349L9212.7,9072Z" style="fill:#de7a61;fill-opacity:0.41;"/>
        <path d="M9213.7,9070C9213.7,9070 11280.7,8812.33 11618.7,8777C11805.3,8757.5 12060.9,8762.5 12180.7,8748C12236.1,8741.3 12286.7,8691.17 12337.7,8690C12388.7,8688.83 12434.2,8739.69 12486.7,8741C12560.2,8742.83 12716,8695.5 12778.7,8701C12815.6,8704.24 12825.9,8778.41 12862.7,8774C12958.7,8762.5 13354.7,8632 13354.7,8632L13361.7,9161L9202.7,9347L9213.7,9070Z" style="fill:#de7a61;fill-opacity:0.41;"/>
        <path d="M9209.7,9076C9209.7,9076 11276.7,8818.33 11614.7,8783C11801.3,8763.5 12056.9,8768.5 12176.7,8754C12232.1,8747.3 12282.7,8697.17 12333.7,8696C12384.7,8694.83 12430.2,8745.69 12482.7,8747C12556.2,8748.83 12712,8701.5 12774.7,8707C12811.6,8710.24 12821.9,8784.41 12858.7,8780C12954.7,8768.5 13350.7,8638 13350.7,8638L13357.7,9167L9198.7,9353L9209.7,9076Z" style="fill:#de7a61;fill-opacity:0.41;"/>
        <path d="M9212.7,9078C9212.7,9078 11279.7,8820.33 11617.7,8785C11804.3,8765.5 12059.9,8770.5 12179.7,8756C12235.1,8749.3 12285.7,8699.17 12336.7,8698C12387.7,8696.83 12433.2,8747.69 12485.7,8749C12559.2,8750.83 12715,8703.5 12777.7,8709C12814.6,8712.24 12824.9,8786.41 12861.7,8782C12957.7,8770.5 13353.7,8640 13353.7,8640L13360.7,9169L9201.7,9355L9212.7,9078Z" style="fill:#de7a61;fill-opacity:0.41;"/>
        <path d="M11718.7,8049C11720.4,8030.01 11744.3,8033.22 11775.7,8044C11806.4,8505.22 11848,8911.56 11867.7,9336L11792.7,9336C11759.8,8909.38 11712.2,8480.83 11718.7,8049Z" style="fill:#d39065;fill-opacity:0.17;"/>
        <path d="M11720.7,8061C11722.4,8042.01 11746.3,8045.22 11777.7,8056C11808.4,8517.22 11850,8923.56 11869.7,9348L11794.7,9348C11761.8,8921.38 11714.2,8492.83 11720.7,8061Z" style="fill:#d39065;fill-opacity:0.17;"/>
        <path d="M11714.7,8053C11716.4,8034.01 11740.3,8037.22 11771.7,8048C11802.4,8509.22 11844,8915.56 11863.7,9340L11788.7,9340C11755.8,8913.38 11708.2,8484.83 11714.7,8053Z" style="fill:#d39065;fill-opacity:0.17;"/>
        <path d="M11722.7,8053C11724.4,8034.01 11748.3,8037.22 11779.7,8048C11810.4,8509.22 11852,8915.56 11871.7,9340L11796.7,9340C11763.8,8913.38 11716.2,8484.83 11722.7,8053Z" style="fill:#d39065;fill-opacity:0.17;"/>
    </g>
    <g id="neutral">
        <path id="collarbg" d="M11234.4,8256.71L11263.2,8220.29L11587.7,8218.66L11621.4,8256.16L11618.6,8309.43L11418.6,8455.09L11230,8306.71L11234.4,8256.71Z" style="fill:#001e3f;stroke:#000;stroke-width:1px;"/>
        <path id="neck" d="M11197.4,8324.89C11197.4,8324.89 11265.5,8261.48 11270.7,8232.54C11278.8,8187.02 11264.3,8046.24 11264.3,8046.24L11570,8044.64C11570,8044.64 11568.4,8179.33 11586.8,8230.15C11602.1,8272.74 11681.5,8339.22 11681.5,8339.22L11583.6,8547.02L11309.7,8527.91L11197.4,8324.89Z" style="fill:#aa6d5b;"/>
        <g id="neckshadow">
            <g>
                <clipPath id="_clip2">
                    <path d="M11197.4,8324.89C11197.4,8324.89 11265.5,8261.48 11270.7,8232.54C11278.8,8187.02 11264.3,8046.24 11264.3,8046.24L11570,8044.64C11570,8044.64 11568.4,8179.33 11586.8,8230.15C11602.1,8272.74 11681.5,8339.22 11681.5,8339.22L11583.6,8547.02L11309.7,8527.91L11197.4,8324.89Z"/>
                </clipPath>
                <g clip-path="url(#_clip2)">
                    <path id="neckbeard" d="M11299.9,7997.78C11306.1,7995.55 11300.8,7959.79 11313.1,7947.67C11328.3,7932.74 11371.7,7913.91 11390.8,7908.18C11402.7,7904.61 11427.8,7913.28 11427.8,7913.28C11427.8,7913.28 11444.2,7897.18 11453.9,7899.26C11472.5,7903.3 11522.4,7922.84 11539.9,7937.48C11553.4,7948.84 11544.4,7988.16 11558.6,7987.1C11572.7,7986.04 11624.6,7931.11 11624.6,7931.11L11614.4,8068.05C11614.4,8068.05 11578.2,8140.41 11525.3,8188.35C11499.1,8212.08 11491.8,8283.45 11439.9,8284.77C11390,8286.03 11373.3,8213.46 11341.4,8190.87C11270.8,8140.85 11208,8060.41 11208,8060.41L11174.3,7906.91L11276.2,7961.05C11276.2,7961.05 11293.7,8000.01 11299.9,7997.78ZM11548.2,8006.49C11546.4,8028.41 11534.2,8083.31 11515.7,8089.86C11497.2,8096.4 11480.3,8027.98 11436.1,8029.86C11381.6,8032.18 11375.1,8095.14 11355.2,8091.77C11335.3,8088.4 11323.2,8045.19 11317.8,8025.55C11312.8,8006.72 11310.4,7980.84 11324.6,7967.42C11342.9,7950.02 11393.5,7944.48 11427.9,7921.17C11454.7,7938.49 11507.9,7937.61 11528,7951.82C11543.8,7963.07 11549.8,7987.12 11548.2,8006.49Z" style="fill:#775a51;fill-opacity:0.5;"/>
                    <path id="neckshadowpath" d="M11252.9,7970.65C11236.8,8010.93 11280.9,8068.6 11294.8,8098.82C11304,8118.83 11332.6,8124.66 11342.9,8144.11C11353.8,8164.52 11327,8210.78 11327.5,8237.1C11328.2,8275.08 11297.1,8341.32 11312.5,8375.76C11327.8,8410.21 11420.1,8428.49 11451.9,8427.9C11483.8,8427.31 11548.7,8401.4 11557.9,8367.7C11567.4,8332.83 11527.8,8250.8 11525,8211.88C11522.9,8183.74 11515.8,8156.3 11521.3,8134.91C11525.3,8119.06 11536.1,8105.65 11541.8,8090.33C11553.3,8059.66 11609.7,7993.32 11588.1,7968.42C11573.7,7951.77 11490.6,7984.45 11474.1,7980.15C11455.7,7975.36 11420,7973.62 11390.8,7980.26C11369,7985.21 11267,7935.6 11252.9,7970.65Z" style="fill:url(#_Linear3);"/>
                    <path id="neckhilight" d="M12014.5,7766.94L10852.7,7766.94L10852.7,8799L12014.5,8799L12014.5,7766.94ZM11214.3,8324.89C11214.3,8324.89 11277.7,8261.48 11282.5,8232.54C11290.1,8187.02 11276.6,8046.24 11276.6,8046.24L11561.2,8044.64C11561.2,8044.64 11559.7,8179.33 11576.8,8230.15C11591,8272.74 11665,8339.22 11665,8339.22L11573.8,8547.02L11318.8,8527.91L11214.3,8324.89Z" style="fill:#fcb879;"/>
                </g>
            </g>
        </g>
        <path id="neck1" serif:id="neck" d="M11197.4,8324.89C11197.4,8324.89 11265.5,8261.48 11270.7,8232.54C11278.8,8187.02 11264.3,8046.24 11264.3,8046.24L11570,8044.64C11570,8044.64 11568.4,8179.33 11586.8,8230.15C11602.1,8272.74 11681.5,8339.22 11681.5,8339.22L11583.6,8547.02L11309.7,8527.91L11197.4,8324.89Z" style="fill:none;stroke:#000;stroke-width:3.33px;"/>
        <path id="shirt" d="M10790.2,8948.2C10790.2,8948.2 10808.1,8594.27 10867.4,8518.7C10930.5,8438.14 11128.1,8358.36 11228.2,8297.67C11242.8,8288.84 11298.6,8354.13 11298.6,8354.13L11433.8,8372.33L11536.1,8358.63C11536.1,8358.63 11626.3,8271.05 11632,8273.53C11806.4,8349.23 11933.2,8316.01 12000.9,8405.24C12068.6,8494.48 12144.2,8965.31 12144.2,8965.31L10790.2,8948.2Z" style="fill:#275175;"/>
        <g id="shirtshadow2">
            <g>
                <clipPath id="_clip4">
                    <path d="M10790.2,8948.2C10790.2,8948.2 10808.1,8594.27 10867.4,8518.7C10930.5,8438.14 11128.1,8358.36 11228.2,8297.67C11242.8,8288.84 11298.6,8354.13 11298.6,8354.13L11433.8,8372.33L11536.1,8358.63C11536.1,8358.63 11626.3,8271.05 11632,8273.53C11806.4,8349.23 11933.2,8316.01 12000.9,8405.24C12068.6,8494.48 12144.2,8965.31 12144.2,8965.31L10790.2,8948.2Z"/>
                </clipPath>
                <g clip-path="url(#_clip4)">
                    <path id="shirthilight" d="M12490.7,7892.09L10357.3,7892.09L10357.3,9497L12490.7,9497L12490.7,7892.09ZM10809.7,8955.66C10809.7,8955.66 10827.1,8606.54 10884.5,8531.99C10945.7,8452.53 11137.2,8373.84 11234.3,8313.97C11248.4,8305.26 11302.5,8369.66 11302.5,8369.66L11433.5,8387.62L11532.6,8374.11C11532.6,8374.11 11620,8287.72 11625.6,8290.16C11794.6,8364.83 11917.5,8332.06 11983.1,8420.08C12048.7,8508.11 12122,8972.54 12122,8972.54L10809.7,8955.66Z" style="fill:#fcb879;fill-opacity:0.5;"/>
                    <g id="shirtshadow" opacity="0.5">
                        <g style="filter:url(#_Effect5);">
                            <g>
                                <g>
                                    <path d="M11901,8658.46C11856.9,8570.24 11782.6,8465.87 11666.9,8429.93C11607.5,8411.47 11518.1,8228.51 11429.6,8231.47C11345.9,8234.27 11262.9,8421.92 11206.7,8442.83C11091.7,8485.66 11017.2,8587.04 10974.2,8676.89C10928.6,8772.41 10932.8,9015.99 10932.8,9015.99C10932.8,9114.65 11059.4,9200.28 11144.6,9200.28L11730.6,9185.54C11815.8,9185.54 11963.1,9122.03 11963.1,9023.36C11963.1,9023.36 11950.3,8757.36 11901,8658.46Z" style="fill:url(#_Linear6);"/>
                                </g>
                            </g>
                        </g>
                    </g>
                </g>
            </g>
        </g>
        <path id="shirtlone" d="M10790.2,8948.2C10790.2,8948.2 10808.1,8594.27 10867.4,8518.7C10930.5,8438.14 11128.1,8358.36 11228.2,8297.67C11242.8,8288.84 11298.6,8354.13 11298.6,8354.13L11433.8,8372.33L11536.1,8358.63C11536.1,8358.63 11626.3,8271.05 11632,8273.53C11806.4,8349.23 11933.2,8316.01 12000.9,8405.24C12068.6,8494.48 12144.2,8965.31 12144.2,8965.31L10790.2,8948.2Z" style="fill:none;stroke:#000;stroke-width:3.33px;"/>
        <path id="head" d="M11225.3,7830.78C11228.9,7808.75 11232.7,7791.46 11232.7,7791.46C11232.7,7791.46 11221.9,7731.83 11235,7716.46C11264.2,7682.12 11244.1,7588.16 11407.9,7585.45C11568.5,7582.79 11575.4,7696.58 11607.9,7730.75C11621.7,7745.22 11602.9,7790.46 11602.9,7790.46C11602.9,7790.46 11611.4,7835.42 11613.4,7867.56L11616,7827.05C11616,7827.05 11627.6,7823.48 11633.7,7831.43C11644.5,7845.72 11653.2,7856.87 11651.9,7891.33C11645.7,7941.81 11636.5,7978.88 11615.4,7976.01C11613.8,7998.42 11609.4,8020.29 11598.9,8038.27C11569.6,8088.53 11538.9,8176.29 11437.7,8183.57C11326.6,8191.57 11285.1,8109.09 11248.6,8062.15C11230.7,8039.03 11224.2,8007.38 11221.6,7976.06C11203.3,7973.88 11194.9,7938.45 11189.1,7891.33C11187.8,7856.87 11196.5,7845.72 11207.4,7831.43C11213.4,7823.48 11225,7827.05 11225,7827.05L11225.3,7830.78Z" style="fill:#aa6d5b;"/>
        <g id="headhilight">
            <g>
                <clipPath id="_clip7">
                    <path d="M11225.3,7830.78C11228.9,7808.75 11232.7,7791.46 11232.7,7791.46C11232.7,7791.46 11221.9,7731.83 11235,7716.46C11264.2,7682.12 11244.1,7588.16 11407.9,7585.45C11568.5,7582.79 11575.4,7696.58 11607.9,7730.75C11621.7,7745.22 11602.9,7790.46 11602.9,7790.46C11602.9,7790.46 11611.4,7835.42 11613.4,7867.56L11616,7827.05C11616,7827.05 11627.6,7823.48 11633.7,7831.43C11644.5,7845.72 11653.2,7856.87 11651.9,7891.33C11645.7,7941.81 11636.5,7978.88 11615.4,7976.01C11613.8,7998.42 11609.4,8020.29 11598.9,8038.27C11569.6,8088.53 11538.9,8176.29 11437.7,8183.57C11326.6,8191.57 11285.1,8109.09 11248.6,8062.15C11230.7,8039.03 11224.2,8007.38 11221.6,7976.06C11203.3,7973.88 11194.9,7938.45 11189.1,7891.33C11187.8,7856.87 11196.5,7845.72 11207.4,7831.43C11213.4,7823.48 11225,7827.05 11225,7827.05L11225.3,7830.78Z"/>
                </clipPath>
                <g clip-path="url(#_clip7)">
                    <path id="beard" d="M11299.9,7997.78C11306.1,7995.55 11300.8,7959.79 11313.1,7947.67C11328.3,7932.74 11371.7,7913.91 11390.8,7908.18C11402.7,7904.61 11427.8,7913.28 11427.8,7913.28C11427.8,7913.28 11444.2,7897.18 11453.9,7899.26C11472.5,7903.3 11522.4,7922.84 11539.9,7937.48C11553.4,7948.84 11544.4,7988.16 11558.6,7987.1C11572.7,7986.04 11616.2,7939.46 11616.2,7939.46L11614.4,8068.05C11614.4,8068.05 11533.6,8229.79 11436.7,8229.83C11340.4,8229.88 11221.2,8051.71 11221.2,8051.71L11221.2,7932.3L11276.2,7961.05C11276.2,7961.05 11293.7,8000.01 11299.9,7997.78ZM11548.2,8006.49C11546.4,8028.41 11534.2,8083.31 11515.7,8089.86C11497.2,8096.4 11480.3,8027.98 11436.1,8029.86C11381.6,8032.18 11375.1,8095.14 11355.2,8091.77C11335.3,8088.4 11323.2,8045.19 11317.8,8025.55C11312.8,8006.72 11310.4,7980.84 11324.6,7967.42C11342.9,7950.02 11393.5,7944.48 11427.9,7921.17C11454.7,7938.49 11507.9,7937.61 11528,7951.82C11543.8,7963.07 11549.8,7987.12 11548.2,8006.49Z" style="fill:#775a51;fill-opacity:0.5;"/>
                    <path id="nshadow" d="M11252.9,7970.65C11236.8,8010.93 11280.9,8068.6 11294.8,8098.82C11304,8118.83 11332.6,8124.66 11342.9,8144.11C11353.8,8164.52 11327,8210.78 11327.5,8237.1C11328.2,8275.08 11297.1,8341.32 11312.5,8375.76C11327.8,8410.21 11420.1,8428.49 11451.9,8427.9C11483.8,8427.31 11548.7,8401.4 11557.9,8367.7C11567.4,8332.83 11527.8,8250.8 11525,8211.88C11522.9,8183.74 11515.8,8156.3 11521.3,8134.91C11525.3,8119.06 11536.1,8105.65 11541.8,8090.33C11553.3,8059.66 11609.7,7993.32 11588.1,7968.42C11573.7,7951.77 11490.6,7984.45 11474.1,7980.15C11455.7,7975.36 11420,7973.62 11390.8,7980.26C11369,7985.21 11267,7935.6 11252.9,7970.65Z" style="fill:url(#_Linear8);"/>
                    <path id="undernose" d="M11377.7,7886.1C11381.5,7893.23 11385.9,7900.21 11397,7905.05C11395,7890.85 11390.2,7871.45 11396.3,7871.71C11404.7,7872.06 11410.2,7906.46 11424.3,7907.04C11439.4,7907.67 11437.7,7872.77 11450.3,7872.42C11459.6,7872.17 11454.8,7903.2 11458.3,7904.19C11466.4,7898.75 11471.2,7888.42 11475.4,7877.27C11475.4,7877.27 11478.1,7929.5 11427,7932.69C11382.7,7935.44 11377.7,7886.1 11377.7,7886.1Z" style="fill:url(#_Linear9);"/>
                    <path id="noseshadow" d="M11412.8,7759.32C11413.6,7772.1 11419,7815.59 11409.9,7830C11397.2,7850 11385.2,7858.25 11380.2,7880.67C11378.5,7888.12 11391.4,7900.68 11392.6,7898.96C11395.6,7894.62 11377.6,7870.25 11398.8,7867.06C11422.5,7863.46 11410.2,7907.7 11423.7,7908.15C11443.9,7908.82 11435.2,7870.41 11442.3,7867.06C11445.8,7865.4 11454.9,7864.18 11459.7,7873.7C11464.5,7883.49 11460.5,7899.01 11463.3,7895.83C11474.9,7882.53 11459.8,7850.46 11438.9,7833.53C11429.9,7826.31 11433.1,7771.59 11434.5,7758.45C11435.4,7749.08 11438.4,7736.98 11447.1,7733.24C11465.9,7725.08 11529.2,7712.04 11549.3,7710.41C11556.6,7709.81 11570.1,7730.25 11567.2,7723.45C11560.9,7708.78 11533,7642.92 11511.8,7622.36C11493.6,7604.84 11464.2,7603.97 11439.5,7600.08C11414.7,7596.18 11386.3,7590.65 11363.4,7598.99C11340.5,7607.32 11313.8,7633.68 11302,7650.08C11292.5,7663.12 11282.2,7686.77 11292.2,7697.36C11302.1,7707.96 11342.4,7707.42 11361.7,7713.67C11377.9,7718.89 11394.2,7726.68 11402.7,7734.29C11408.9,7739.83 11412.3,7751.03 11412.8,7759.32Z" style="fill:url(#_Linear10);"/>
                    <path id="eyeshadow" d="M11269.8,7930.61C11264.4,7893.32 11231.8,7839.98 11258.5,7791.57C11287.7,7738.57 11361.9,7752.54 11386.2,7753.97C11399.2,7754.74 11404.9,7789.34 11397.5,7810.14C11380.5,7857.99 11360.7,7905.04 11373.5,7916.12C11388.1,7928.74 11465,7928.73 11478.1,7914.76C11497,7894.78 11458,7827.57 11454.1,7808.78C11451.3,7794.81 11451.4,7760.87 11463.6,7759.86C11486.6,7757.97 11556.3,7736.25 11587.7,7798.36C11612.6,7847.4 11580.3,7905.32 11574.6,7930.16C11568.2,7958.33 11592.7,8004.7 11576,8000.37C11557.9,7995.68 11490.6,7947.27 11461.8,7932.43C11445.6,7936.58 11424,7944.36 11403,7937.41C11392.9,7935.04 11277.9,8006.33 11256.2,8004.44C11234.5,8002.55 11273.5,7955.71 11269.8,7930.61Z" style="fill:url(#_Linear11);"/>
                    <path id="headhilight1" serif:id="headhilight" d="M11953.1,7468.89L10909.5,7468.89L10909.5,8406.83L11953.1,8406.83L11953.1,7468.89ZM11235.6,7833.65C11239.1,7812.79 11242.7,7796.42 11242.7,7796.42C11242.7,7796.42 11232.5,7739.96 11244.9,7725.41C11272.5,7692.9 11253.5,7603.93 11408.5,7601.37C11560.7,7598.84 11567.2,7706.59 11597.9,7738.94C11611,7752.64 11593.2,7795.48 11593.2,7795.48C11593.2,7795.48 11601.2,7838.04 11603.2,7868.48L11605.6,7830.12C11605.6,7830.12 11616.6,7826.73 11622.3,7834.27C11632.6,7847.8 11640.8,7858.35 11639.6,7890.98C11633.7,7938.78 11625,7973.87 11605,7971.16C11603.6,7992.38 11593.6,8010.84 11589.5,8030.11C11576.2,8091.58 11532.6,8175.88 11436.8,8182.78C11331.6,8190.35 11276,8106.22 11257.8,8052.72C11248.8,8026.47 11234.6,8000.86 11232.1,7971.2C11214.8,7969.15 11206.9,7935.6 11201.4,7890.98C11200.2,7858.35 11208.4,7847.8 11218.7,7834.27C11224.4,7826.73 11235.4,7830.12 11235.4,7830.12L11235.6,7833.65Z" style="fill:#fcb879;"/>
                </g>
            </g>
        </g>
        <path id="head1" serif:id="head" d="M11225.3,7830.78C11228.9,7808.75 11232.7,7791.46 11232.7,7791.46C11232.7,7791.46 11221.9,7731.83 11235,7716.46C11264.2,7682.12 11244.1,7588.16 11407.9,7585.45C11568.5,7582.79 11575.4,7696.58 11607.9,7730.75C11621.7,7745.22 11602.9,7790.46 11602.9,7790.46C11602.9,7790.46 11611.4,7835.42 11613.4,7867.56L11616,7827.05C11616,7827.05 11627.6,7823.48 11633.7,7831.43C11644.5,7845.72 11653.2,7856.87 11651.9,7891.33C11645.7,7941.81 11636.5,7978.88 11615.4,7976.01C11613.8,7998.42 11609.4,8020.29 11598.9,8038.27C11569.6,8088.53 11538.9,8176.29 11437.7,8183.57C11326.6,8191.57 11285.1,8109.09 11248.6,8062.15C11230.7,8039.03 11224.2,8007.38 11221.6,7976.06C11203.3,7973.88 11194.9,7938.45 11189.1,7891.33C11187.8,7856.87 11196.5,7845.72 11207.4,7831.43C11213.4,7823.48 11225,7827.05 11225,7827.05L11225.3,7830.78Z" style="fill:none;stroke:#000;stroke-width:3.33px;"/>
        <path id="mouth" d="M11335.1,7979.52L11401.3,7942.58C11418.3,7946.33 11437.8,7945.19 11459.9,7938.75L11523,7976.33C11464.6,8012.45 11401.9,8013.04 11335.1,7979.52Z" style="fill:#9d5851;"/>
        <path id="mouthline" d="M11352.9,7978.34C11363.4,7979.43 11382.3,7970.19 11382.3,7970.19C11414.1,7973.77 11443.1,7975.04 11476.6,7970.13C11476.6,7970.13 11496.3,7977.48 11507.1,7976.75" style="fill:none;stroke:#7b2e26;stroke-width:3.33px;"/>
        <path id="mouthoutline" d="M11335.1,7979.52L11401.3,7942.58C11418.3,7946.33 11437.8,7945.19 11459.9,7938.75L11523,7976.33C11464.6,8012.45 11401.9,8013.04 11335.1,7979.52Z" style="fill:none;stroke:#7b2e26;stroke-width:3.33px;"/>
        <g id="eyes">
            <g id="lefteyeclip">
                <g>
                    <clipPath id="_clip12">
                        <path d="M11372.3,7800.61C11365.1,7788.45 11342.7,7786.25 11319.5,7790.2C11297.7,7793.93 11282.2,7801.48 11278,7814.39C11287.2,7824.77 11311.8,7828.24 11331.7,7823.92C11355.2,7818.83 11367.1,7814.8 11372.3,7800.61Z"/>
                    </clipPath>
                    <g clip-path="url(#_clip12)">
                        <path id="leyewhite" d="M11372.3,7800.61C11365.1,7788.45 11344.1,7782.05 11321,7786C11299.2,7789.72 11282.2,7801.48 11278,7814.39C11287.2,7824.77 11305.3,7830.79 11325.6,7828.81C11348.5,7826.58 11367.1,7814.8 11372.3,7800.61Z" style="fill:#bdbdbd;"/>
                        <g id="lcolor">
                            <path id="liris" d="M11322.8,7792.16C11312.8,7793.86 11306,7802.84 11307.6,7812.2C11309.2,7821.57 11318.6,7827.79 11328.6,7826.08C11338.6,7824.38 11345.4,7815.4 11343.8,7806.04C11342.2,7796.67 11332.8,7790.46 11322.8,7792.16Z" style="fill:#ad3e03;stroke:#7b2e26;stroke-width:4.02px;"/>
                            <path id="lpupil" d="M11323.8,7800.11C11318.3,7801.05 11314.6,7805.97 11315.5,7811.1C11316.3,7816.23 11321.5,7819.63 11327,7818.7C11332.5,7817.76 11336.2,7812.84 11335.4,7807.7C11334.5,7802.58 11329.3,7799.17 11323.8,7800.11Z"/>
                            <path id="lfullref" d="M11331.3,7794.8C11327.3,7795.49 11324.4,7798.13 11324.8,7800.68C11325.3,7803.23 11328.9,7804.74 11332.9,7804.05C11337,7803.36 11339.9,7800.73 11339.5,7798.18C11339,7795.63 11335.4,7794.12 11331.3,7794.8Z" style="fill:#fff;"/>
                            <path id="lhalfref" d="M11320,7815.12C11315.9,7815.81 11313,7818.44 11313.5,7820.99C11313.9,7823.54 11317.5,7825.06 11321.6,7824.37C11325.6,7823.67 11328.5,7821.04 11328.1,7818.49C11327.7,7815.94 11324,7814.43 11320,7815.12Z" style="fill:#fff;fill-opacity:0.25;"/>
                        </g>
                    </g>
                </g>
            </g>
            <path id="letoutline" d="M11372.3,7800.61C11365.1,7788.45 11342.7,7786.25 11319.5,7790.2C11297.7,7793.93 11282.2,7801.48 11278,7814.39C11287.2,7824.77 11311.8,7828.24 11331.7,7823.92C11355.2,7818.83 11367.1,7814.8 11372.3,7800.61Z" style="fill:none;stroke:#000;stroke-width:3.33px;"/>
            <g id="righteyeclip">
                <g>
                    <clipPath id="_clip13">
                        <path d="M11471.7,7800.61C11478.9,7788.45 11501.4,7786.25 11524.5,7790.2C11546.3,7793.93 11561.8,7801.48 11566,7814.39C11556.8,7824.77 11532.2,7828.24 11512.3,7823.92C11488.8,7818.83 11476.9,7814.8 11471.7,7800.61Z"/>
                    </clipPath>
                    <g clip-path="url(#_clip13)">
                        <path id="reyewhite" d="M11471.7,7800.61C11478.9,7788.45 11499.9,7782.05 11523,7786C11544.8,7789.72 11561.8,7801.48 11566,7814.39C11556.8,7824.77 11538.7,7830.79 11518.4,7828.81C11495.5,7826.58 11476.9,7814.8 11471.7,7800.61Z" style="fill:#bdbdbd;"/>
                        <g id="rcolor">
                            <path id="riris" d="M11512,7791.75C11502.1,7793.45 11495.3,7802.44 11496.9,7811.8C11498.5,7821.16 11507.9,7827.38 11517.8,7825.68C11527.8,7823.97 11534.6,7814.99 11533,7805.63C11531.4,7796.27 11522,7790.05 11512,7791.75Z" style="fill:#ad3e03;stroke:#7b2e26;stroke-width:4.02px;"/>
                            <path id="rpupil" d="M11513.1,7799.7C11507.6,7800.64 11503.8,7805.56 11504.7,7810.69C11505.6,7815.82 11510.7,7819.23 11516.2,7818.29C11521.7,7817.35 11525.5,7812.43 11524.6,7807.3C11523.7,7802.17 11518.5,7798.76 11513.1,7799.7Z"/>
                            <path id="rfullref" d="M11520.6,7794.4C11516.5,7795.09 11513.6,7797.72 11514,7800.27C11514.5,7802.82 11518.1,7804.33 11522.2,7803.64C11526.2,7802.95 11529.1,7800.32 11528.7,7797.77C11528.2,7795.22 11524.6,7793.71 11520.6,7794.4Z" style="fill:#fff;"/>
                            <path id="rhalfref" d="M11509.2,7814.71C11505.2,7815.4 11502.2,7818.03 11502.7,7820.58C11503.1,7823.13 11506.8,7824.65 11510.8,7823.96C11514.8,7823.27 11517.8,7820.64 11517.3,7818.08C11516.9,7815.53 11513.2,7814.02 11509.2,7814.71Z" style="fill:#fff;fill-opacity:0.25;"/>
                        </g>
                    </g>
                </g>
            </g>
            <path id="rightoutline" d="M11471.7,7800.61C11478.9,7788.45 11501.4,7786.25 11524.5,7790.2C11546.3,7793.93 11561.8,7801.48 11566,7814.39C11556.8,7824.77 11532.2,7828.24 11512.3,7823.92C11488.8,7818.83 11476.9,7814.8 11471.7,7800.61Z" style="fill:none;stroke:#000;stroke-width:3.33px;"/>
        </g>
        <path id="nose" d="M11405.1,7761.88C11407.5,7778.18 11408.4,7792.68 11404.5,7808.7C11399.8,7828.33 11380.2,7864.06 11376.8,7879.6C11374.7,7888.94 11391.5,7905.92 11394.9,7904.06C11402.4,7899.93 11381.6,7867.07 11399,7871.51C11403.2,7872.59 11412.4,7899.87 11417.9,7905.69C11420.9,7908.85 11428.3,7908.82 11430.9,7905.36C11435.1,7899.87 11440.5,7874.24 11444.8,7873.01C11467.1,7866.74 11450.9,7898.78 11458,7903.73C11462.2,7906.74 11476.6,7884.19 11474.3,7872.75C11471.2,7857.81 11449.4,7828.68 11444.4,7809.88C11439.8,7792.38 11442.8,7777.96 11444.3,7759.92" style="fill:none;stroke:#000;stroke-width:3.33px;"/>
        <path id="lefthair" d="M11244.9,7945.9L11220.6,7932.81C11212,7933.32 11209.3,7666.09 11258.3,7619.68C11298.6,7581.57 11335.2,7559.38 11373.8,7552.69L11341.6,7608.4C11257.1,7654.52 11207.3,7854.56 11244.9,7945.9Z" style="fill:#4a4a4a;"/>
        <g id="lefthairshine">
            <g>
                <clipPath id="_clip14">
                    <path d="M11244.9,7945.9L11220.6,7932.81C11212,7933.32 11209.3,7666.09 11258.3,7619.68C11298.6,7581.57 11335.2,7559.38 11373.8,7552.69L11341.6,7608.4C11257.1,7654.52 11207.3,7854.56 11244.9,7945.9Z"/>
                </clipPath>
                <g clip-path="url(#_clip14)">
                    <path id="leftHairHilight" d="M11816,7459.09L11024.6,7459.09L11024.6,8248.17L11816,8248.17L11816,7459.09ZM11244.9,7945.9L11229.7,7932.81C11221.1,7933.32 11217.6,7667.59 11266.6,7621.19C11306.9,7583.08 11336,7570.7 11374.5,7564.01L11341.6,7608.4C11257.1,7654.52 11207.3,7854.56 11244.9,7945.9Z" style="fill:#fcb879;fill-opacity:0.5;"/>
                </g>
            </g>
        </g>
        <path id="lefthairline" d="M11244.9,7945.9L11220.6,7932.81C11212,7933.32 11209.3,7666.09 11258.3,7619.68C11298.6,7581.57 11335.2,7559.38 11373.8,7552.69L11341.6,7608.4C11257.1,7654.52 11207.3,7854.56 11244.9,7945.9Z" style="fill:none;stroke:#000;stroke-width:3.33px;"/>
        <path id="righthair" d="M11617.5,7861.37C11644.5,7797.53 11631.1,7863.8 11631.8,7796.14C11633.7,7598.26 11571.5,7542.45 11441.2,7536.13C11355.7,7531.98 11325.5,7601.08 11336.1,7608.6C11355.7,7663.64 11403.2,7672.72 11524.7,7679.19C11563.3,7670.17 11605.7,7756.91 11603,7830.25C11601.6,7867.5 11589.5,7964.6 11589.5,7964.6L11616.4,7939.18C11616.4,7939.18 11618,7859.39 11617.5,7861.37Z" style="fill:#4a4a4a;"/>
        <g id="hairshine">
            <g>
                <clipPath id="_clip15">
                    <path d="M11617.5,7861.37C11644.5,7797.53 11631.1,7863.8 11631.8,7796.14C11633.7,7598.26 11571.5,7542.45 11441.2,7536.13C11355.7,7531.98 11325.5,7601.08 11336.1,7608.6C11355.7,7663.64 11403.2,7672.72 11524.7,7679.19C11563.3,7670.17 11605.7,7756.91 11603,7830.25C11601.6,7867.5 11589.5,7964.6 11589.5,7964.6L11616.4,7939.18C11616.4,7939.18 11618,7859.39 11617.5,7861.37Z"/>
                </clipPath>
                <g clip-path="url(#_clip15)">
                    <path id="righthairhilight" d="M11816,7459.09L11024.6,7459.09L11024.6,8248.17L11816,8248.17L11816,7459.09ZM11626.1,7830.92C11625.7,7830.56 11623.2,7826.89 11623.5,7796.89C11625.4,7599.01 11564.7,7553.02 11441.2,7546.7C11355.7,7542.32 11325.5,7601.08 11336.1,7608.6C11355.7,7663.64 11403.2,7672.72 11524.7,7679.19C11563.3,7670.17 11605.7,7756.91 11603,7830.25C11601.6,7867.5 11589.5,7964.6 11589.5,7964.6L11616.4,7939.18C11616.4,7939.18 11618,7860.71 11617.5,7861.33L11617.5,7861.37C11617.5,7861.35 11617.5,7861.35 11617.5,7861.33L11617.5,7861.33C11630,7831.63 11625.6,7830.88 11626.1,7830.92Z" style="fill:#fcb879;fill-opacity:0.5;"/>
                </g>
            </g>
        </g>
        <path id="hairline" d="M11617.5,7861.37C11644.5,7797.53 11631.1,7863.8 11631.8,7796.14C11633.7,7598.26 11571.5,7542.45 11441.2,7536.13C11355.7,7531.98 11325.5,7601.08 11336.1,7608.6C11355.7,7663.64 11403.2,7672.72 11524.7,7679.19C11563.3,7670.17 11605.7,7756.91 11603,7830.25C11601.6,7867.5 11589.5,7964.6 11589.5,7964.6L11616.4,7939.18C11616.4,7939.18 11618,7859.39 11617.5,7861.37Z" style="fill:none;stroke:#000;stroke-width:3.33px;"/>
        <path id="rightbrow" d="M11403.8,7750.24C11403.8,7750.24 11356.9,7749.12 11330.8,7748.31C11273,7746.49 11254.7,7777.12 11254.7,7777.12C11254.7,7777.12 11270.6,7732.58 11289.1,7725.47C11309.7,7717.53 11359.8,7726.58 11378.9,7730.7C11388.7,7732.83 11403.8,7750.24 11403.8,7750.24Z" style="fill:#4a4a4a;stroke:#000;stroke-width:3.33px;"/>
        <path id="leftbrow" d="M11443.7,7750.24C11443.7,7750.24 11490.6,7749.12 11516.7,7748.31C11574.5,7746.49 11592.9,7777.12 11592.9,7777.12C11592.9,7777.12 11576.9,7732.58 11558.4,7725.47C11537.8,7717.53 11487.7,7726.58 11468.6,7730.7C11458.8,7732.83 11443.7,7750.24 11443.7,7750.24Z" style="fill:#4a4a4a;stroke:#000;stroke-width:3.33px;"/>
        <path id="rightcollar" d="M11582.5,8215.35C11606.2,8221.5 11615.9,8241.84 11627.5,8257.94C11629.1,8259.97 11643.6,8321.8 11637.2,8326.36C11608.1,8371.09 11452.5,8454.83 11452.5,8444.54L11425.8,8369.9C11488.4,8356.06 11550,8322.41 11610.5,8262.91C11607.6,8246.74 11599.4,8235.95 11586.7,8229.91C11585.1,8225.6 11583.7,8220.7 11582.5,8215.35Z" style="fill:#275175;"/>
        <g id="rightcollarclop">
            <g>
                <clipPath id="_clip16">
                    <path d="M11582.5,8215.35C11606.2,8221.5 11615.9,8241.84 11627.5,8257.94C11629.1,8259.97 11643.6,8321.8 11637.2,8326.36C11608.1,8371.09 11452.5,8454.83 11452.5,8444.54L11425.8,8369.9C11488.4,8356.06 11550,8322.41 11610.5,8262.91C11607.6,8246.74 11599.4,8235.95 11586.7,8229.91C11585.1,8225.6 11583.7,8220.7 11582.5,8215.35Z"/>
                </clipPath>
                <g clip-path="url(#_clip16)">
                    <g id="rightcollarshadow" opacity="0.5">
                        <g style="filter:url(#_Effect17);">
                            <g>
                                <g>
                                    <path d="M11901,8658.46C11856.9,8570.24 11782.6,8465.87 11666.9,8429.93C11607.5,8411.47 11518.1,8228.51 11429.6,8231.47C11345.9,8234.27 11262.9,8421.92 11206.7,8442.83C11091.7,8485.66 11017.2,8587.04 10974.2,8676.89C10928.6,8772.41 10932.8,9015.99 10932.8,9015.99C10932.8,9114.65 11059.4,9200.28 11144.6,9200.28L11730.6,9185.54C11815.8,9185.54 11963.1,9122.03 11963.1,9023.36C11963.1,9023.36 11950.3,8757.36 11901,8658.46Z" style="fill:url(#_Linear18);"/>
                                </g>
                            </g>
                        </g>
                    </g>
                    <path id="rightcollarhilight" d="M11211.2,8322.23L11223.2,8255.31C11236.6,8170.94 11577,8138.46 11629.7,8255.31L11639.5,8324.34L11625.4,8340.54L11617.7,8262.35C11505.3,8104.02 11376.7,8107.62 11233.1,8263.06L11223.9,8336.32L11211.2,8322.23Z" style="fill:#fcb879;fill-opacity:0.5;"/>
                </g>
            </g>
        </g>
        <path id="rightcollar1" serif:id="rightcollar" d="M11582.5,8215.35C11606.2,8221.5 11615.9,8241.84 11627.5,8257.94C11629.1,8259.97 11643.6,8321.8 11637.2,8326.36C11608.1,8371.09 11452.5,8454.83 11452.5,8444.54L11425.8,8369.9C11488.4,8356.06 11550,8322.41 11610.5,8262.91C11607.6,8246.74 11599.4,8235.95 11586.7,8229.91C11585.1,8225.6 11583.7,8220.7 11582.5,8215.35Z" style="fill:none;stroke:#000;stroke-width:3.33px;"/>
        <path id="leftcollar" d="M11272.6,8214.48C11272.3,8219.11 11272,8223.38 11271.5,8227.18C11254.7,8232.37 11244.1,8243.93 11240.7,8262.91C11301,8322.41 11362.4,8356.06 11424.8,8369.9L11398.2,8444.54C11398.2,8454.83 11243.1,8371.09 11214,8326.36C11207.7,8321.8 11222.2,8259.97 11223.7,8257.94C11235.9,8240.97 11246,8219.28 11272.6,8214.48Z" style="fill:#275175;"/>
        <g id="leftcollarclop">
            <g>
                <clipPath id="_clip19">
                    <path d="M11272.6,8214.48C11272.3,8219.11 11272,8223.38 11271.5,8227.18C11254.7,8232.37 11244.1,8243.93 11240.7,8262.91C11301,8322.41 11362.4,8356.06 11424.8,8369.9L11398.2,8444.54C11398.2,8454.83 11243.1,8371.09 11214,8326.36C11207.7,8321.8 11222.2,8259.97 11223.7,8257.94C11235.9,8240.97 11246,8219.28 11272.6,8214.48Z"/>
                </clipPath>
                <g clip-path="url(#_clip19)">
                    <g opacity="0.5">
                        <g id="leftcollarshadow" opacity="0.5">
                            <g style="filter:url(#_Effect20);">
                                <g>
                                    <g>
                                        <path d="M11901,8658.46C11856.9,8570.24 11782.6,8465.87 11666.9,8429.93C11607.5,8411.47 11518.1,8228.51 11429.6,8231.47C11345.9,8234.27 11262.9,8421.92 11206.7,8442.83C11091.7,8485.66 11017.2,8587.04 10974.2,8676.89C10928.6,8772.41 10932.8,9015.99 10932.8,9015.99C10932.8,9114.65 11059.4,9200.28 11144.6,9200.28L11730.6,9185.54C11815.8,9185.54 11963.1,9122.03 11963.1,9023.36C11963.1,9023.36 11950.3,8757.36 11901,8658.46Z" style="fill:url(#_Linear21);"/>
                                    </g>
                                </g>
                            </g>
                        </g>
                        <path id="leftcollarhilight" d="M11211.2,8322.23L11223.2,8255.31C11236.6,8170.94 11577,8138.46 11629.7,8255.31L11639.5,8324.34L11625.4,8340.54L11617.7,8262.35C11505.3,8104.02 11376.7,8107.62 11233.1,8263.06L11223.9,8336.32L11211.2,8322.23Z" style="fill:#fcb879;"/>
                    </g>
                </g>
            </g>
        </g>
        <path id="leftcollar1" serif:id="leftcollar" d="M11272.6,8214.48C11272.3,8219.11 11272,8223.38 11271.5,8227.18C11254.7,8232.37 11244.1,8243.93 11240.7,8262.91C11301,8322.41 11362.4,8356.06 11424.8,8369.9L11398.2,8444.54C11398.2,8454.83 11243.1,8371.09 11214,8326.36C11207.7,8321.8 11222.2,8259.97 11223.7,8257.94C11235.9,8240.97 11246,8219.28 11272.6,8214.48Z" style="fill:none;stroke:#000;stroke-width:3.33px;"/>
    </g>
    <path id="mouthorange" d="M13859.8,6057.11L8672.62,6057.11L8672.62,9120.57L13859.8,9120.57L13859.8,6057.11ZM11431,7523.65C11732.8,7523.65 12031.4,7486.91 12234.4,7385.48C12543.6,7231.03 12739.3,7819.74 12739.3,8085.49C12739.3,8372.82 12500,8540.96 12138,8687.37C11930,8771.52 11699.9,8647.33 11433,8647.33C11202.5,8647.33 10957.4,8760.2 10768.5,8696.05C10358.2,8556.66 10089.7,8395.35 10089.7,8085.49C10089.7,7807.03 10353.4,7271.24 10668.9,7439.5C10863.4,7543.22 11149.8,7523.65 11431,7523.65Z" style="fill:#f7876e;"/>
    <path id="mouthred" d="M13986.5,6020.16L8514.26,6020.16L8514.26,9157.52L13986.5,9157.52L13986.5,6020.16ZM11424.2,7522.08C11742.6,7522.08 12057.6,7484.45 12271.8,7380.57C12597.9,7222.4 12804.5,7825.31 12804.5,8097.47C12804.5,8391.73 12551.9,8563.93 12170.1,8713.87C11950.6,8800.05 11707.8,8672.86 11426.3,8672.86C11183.2,8672.86 10924.6,8788.46 10725.3,8722.76C10292.5,8580.01 10009.2,8414.81 10009.2,8097.47C10009.2,7812.29 10287.4,7263.57 10620.3,7435.9C10825.5,7542.12 11127.6,7522.08 11424.2,7522.08Z" style="fill:url(#_Radial22);"/>
    <g id="upperteeth">
        <path id="lo2" d="M11111.4,7585.92C11093.6,7134.5 11397.7,7165.37 11412.6,7571.86C11414.5,7623.28 11113.4,7637.73 11111.4,7585.92Z" style="fill:url(#_Radial23);stroke:#4a0017;stroke-width:8.33px;"/>
        <path id="lo3" d="M10808.6,7525.55C10844.6,7101.09 11128.1,7165.86 11094.6,7547.96C11090.3,7596.29 10804.4,7574.27 10808.6,7525.55Z" style="fill:url(#_Radial24);stroke:#4a0017;stroke-width:8.33px;"/>
        <path id="lo4" d="M10584.7,7464.89C10602.6,7031.74 10856.1,7095.2 10803.6,7476.81C10797.2,7523.76 10774,7509.34 10777.4,7541.78C10779.7,7562.91 10583.3,7498.48 10584.7,7464.89Z" style="fill:url(#_Radial25);stroke:#4a0017;stroke-width:8.33px;"/>
        <path id="lo5" d="M10334.9,7360.64C10282.9,7199.52 10326.7,7130.08 10353,7080.73C10381.7,7026.87 10602.4,7023.87 10637.1,7094.6C10675.2,7172.15 10686.2,7275.03 10615.5,7413.1C10588.9,7465.19 10506.6,7372.22 10480,7367.44C10460.3,7363.89 10350.2,7408.06 10334.9,7360.64Z" style="fill:url(#_Radial26);stroke:#4a0017;stroke-width:8.33px;"/>
        <path id="lo6" d="M10417,7208.55C10508.2,7034.74 10478.1,6942.42 10457.3,6881.05C10434.6,6814.09 10180.5,6768.23 10126.8,6842.25C10067.9,6923.41 10034.1,6985.87 10088.9,7156.97C10109.7,7221.52 10263.6,7188.76 10295.2,7188.41C10318.6,7188.16 10390.2,7259.71 10417,7208.55Z" style="fill:url(#_Radial27);stroke:#4a0017;stroke-width:8.33px;"/>
        <path id="lo7" d="M10185.7,7066.64C10287.1,6863.5 10280.9,6700.44 10258,6628.85C10233,6550.74 9951.67,6497.84 9892,6584.39C9826.58,6679.28 9788.93,6752.29 9849.29,6951.9C9872.06,7027.2 10031.7,7035.53 10066.6,7035.05C10092.6,7034.69 10155.8,7126.43 10185.7,7066.64Z" style="fill:url(#_Radial28);stroke:#4a0017;stroke-width:8.33px;"/>
        <path id="ro2" d="M11724.9,7585.92C11742.7,7134.5 11438.6,7165.37 11423.7,7571.86C11421.9,7623.28 11722.9,7637.73 11724.9,7585.92Z" style="fill:url(#_Radial29);stroke:#4a0017;stroke-width:8.33px;"/>
        <path id="ro3" d="M12027.7,7525.55C11991.7,7101.09 11708.2,7165.86 11741.7,7547.96C11746,7596.29 12031.9,7574.27 12027.7,7525.55Z" style="fill:url(#_Radial30);stroke:#4a0017;stroke-width:8.33px;"/>
        <path id="ro4" d="M12251.6,7464.89C12233.7,7031.74 11980.2,7095.2 12032.7,7476.81C12039.1,7523.76 12062.4,7509.34 12058.9,7541.78C12056.6,7562.91 12253,7498.48 12251.6,7464.89Z" style="fill:url(#_Radial31);stroke:#4a0017;stroke-width:8.33px;"/>
        <path id="ro5" d="M12501.8,7358.32C12553.8,7197.2 12510,7127.76 12483.7,7078.41C12455,7024.55 12234.3,7021.55 12199.6,7092.28C12161.5,7169.83 12150.5,7272.72 12221.2,7410.78C12247.8,7462.87 12330.1,7369.9 12356.7,7365.12C12376.4,7361.57 12486.5,7405.74 12501.8,7358.32Z" style="fill:url(#_Radial32);stroke:#4a0017;stroke-width:8.33px;"/>
        <path id="ro6" d="M12419.3,7208.8C12328.1,7034.98 12358.2,6942.66 12379,6881.3C12401.7,6814.34 12655.8,6768.47 12709.5,6842.49C12768.3,6923.65 12802.2,6986.11 12747.3,7157.21C12726.6,7221.76 12572.7,7189 12541.1,7188.65C12517.6,7188.4 12446.1,7259.95 12419.3,7208.8Z" style="fill:url(#_Radial33);stroke:#4a0017;stroke-width:8.33px;"/>
        <path id="ro7" d="M12651.4,7066.02C12550,6862.88 12556.2,6699.82 12579.1,6628.23C12604.1,6550.12 12885.4,6497.22 12945.1,6583.77C13010.5,6678.66 13048.1,6751.67 12987.8,6951.27C12965,7026.58 12805.4,7034.91 12770.4,7034.43C12744.4,7034.07 12681.2,7125.81 12651.4,7066.02Z" style="fill:url(#_Radial34);stroke:#4a0017;stroke-width:8.33px;"/>
        <path id="uc" d="M10379.8,7336.33C10417.4,7331.44 10466.8,7318.95 10484.3,7291.08C10500.6,7329.53 10531.5,7347.43 10565.1,7351.41C10539.4,7354.49 10513.4,7356.92 10477.9,7332.31C10447.3,7349.77 10414.2,7348.23 10379.8,7336.33ZM12456.9,7334.01C12419.3,7329.12 12369.9,7316.64 12352.4,7288.76C12336.1,7327.22 12305.2,7345.11 12271.7,7349.09C12300.2,7353.46 12328.7,7360.5 12357.2,7318.96C12394.3,7335.56 12425.8,7335.17 12456.9,7334.01ZM12461.6,7167.74C12504,7154.93 12523.4,7104.22 12538.2,7069.06C12564.5,7109.79 12595.4,7155.93 12634.9,7154.02C12603.7,7154.45 12572.9,7151.77 12543.7,7138.48C12524.1,7165.02 12494.8,7170.58 12461.6,7167.74ZM10374.6,7167.5C10332.2,7154.69 10312.8,7103.98 10298,7068.82C10271.8,7109.55 10240.8,7155.69 10201.4,7153.77C10230.5,7160.68 10260.7,7160.96 10295.7,7128.62C10322,7164.34 10348.3,7169.06 10374.6,7167.5ZM10135.8,6999.05C10094.8,6970.74 10090.3,6907.55 10085.8,6863.3C10045,6900.28 9997.56,6941.78 9956.26,6926.64C9979.95,6939.12 10005.8,6949.47 10063,6928.42C10076.6,6980.08 10106.4,6989.12 10135.8,6999.05ZM12701.2,6998.43C12742.2,6970.11 12746.7,6906.93 12751.3,6862.68C12792.1,6899.65 12839.5,6941.16 12880.8,6926.02C12846.4,6939.3 12811.2,6949.64 12766.9,6925.48C12768.4,6970.73 12737.1,6986.59 12701.2,6998.43Z" style="fill:#5e0000;fill-opacity:0.18;"/>
        <path id="ucl" d="M10380.3,7340.46C10403.3,7337.47 10430.5,7331.68 10452.5,7321.42C10465.1,7315.57 10475.9,7308.24 10483.4,7299.26C10501,7334.81 10531.6,7351.63 10564.6,7355.54C10566.8,7355.82 10568.9,7354.18 10569.2,7351.9C10569.5,7349.61 10567.8,7347.54 10565.5,7347.27C10533.4,7343.45 10503.7,7326.31 10488.1,7289.45C10487.5,7288.03 10486.1,7287.05 10484.6,7286.93C10483,7286.81 10481.6,7287.55 10480.7,7288.87C10474.1,7299.4 10462.6,7307.51 10449,7313.86C10427.8,7323.77 10401.4,7329.31 10379.2,7332.19C10377,7332.49 10375.3,7334.58 10375.6,7336.86C10375.9,7339.14 10378,7340.75 10380.3,7340.46ZM12457.5,7329.88C12435.3,7326.99 12409,7321.45 12387.7,7311.55C12374.1,7305.19 12362.6,7297.09 12356,7286.55C12355.1,7285.24 12353.7,7284.49 12352.1,7284.61C12350.6,7284.73 12349.2,7285.71 12348.6,7287.14C12333,7323.99 12303.3,7341.14 12271.2,7344.95C12268.9,7345.22 12267.2,7347.3 12267.5,7349.58C12267.8,7351.86 12269.9,7353.5 12272.1,7353.23C12305.1,7349.31 12335.7,7332.49 12353.3,7296.94C12360.8,7305.93 12371.7,7313.25 12384.2,7319.1C12406.2,7329.36 12433.4,7335.15 12456.4,7338.14C12458.7,7338.44 12460.8,7336.82 12461.1,7334.54C12461.4,7332.26 12459.8,7330.17 12457.5,7329.88ZM12462.8,7171.73C12485,7165.04 12501.2,7148.56 12513.8,7129.03C12524.3,7112.66 12532.2,7094.17 12539,7077.95C12553.9,7100.77 12570.2,7124.34 12588.7,7139.86C12602.9,7151.77 12618.3,7158.99 12635.1,7158.18C12637.4,7158.07 12639.2,7156.11 12639.1,7153.81C12638.9,7151.52 12637,7149.74 12634.7,7149.85C12619.9,7150.57 12606.5,7143.94 12594.1,7133.48C12574.4,7116.93 12557.3,7090.89 12541.7,7066.8C12540.9,7065.5 12539.4,7064.78 12537.9,7064.91C12536.3,7065.05 12535,7066.02 12534.4,7067.44C12527.1,7084.83 12518.7,7106.07 12506.8,7124.53C12495.3,7142.36 12480.7,7157.64 12460.4,7163.75C12458.2,7164.42 12457,7166.74 12457.6,7168.94C12458.3,7171.15 12460.6,7172.39 12462.8,7171.73ZM10375.8,7163.51C10355.6,7157.4 10340.9,7142.12 10329.5,7124.29C10317.6,7105.82 10309.2,7084.59 10301.9,7067.2C10301.3,7065.78 10299.9,7064.8 10298.4,7064.67C10296.8,7064.53 10295.4,7065.26 10294.5,7066.56C10279,7090.65 10261.9,7116.69 10242.2,7133.24C10229.8,7143.7 10216.3,7150.33 10201.6,7149.61C10199.3,7149.5 10197.3,7151.28 10197.2,7153.57C10197.1,7155.87 10198.9,7157.82 10201.2,7157.94C10218,7158.75 10233.4,7151.53 10247.6,7139.61C10266,7124.1 10282.4,7100.53 10297.2,7077.71C10304,7093.93 10311.9,7112.42 10322.5,7128.79C10335,7148.31 10351.3,7164.8 10373.4,7171.49C10375.6,7172.15 10378,7170.9 10378.6,7168.7C10379.3,7166.5 10378,7164.18 10375.8,7163.51ZM10138.2,6995.62C10118.5,6982.02 10107.7,6959.95 10101.2,6936.05C10094.4,6911.41 10092.2,6884.8 10089.9,6862.88C10089.8,6861.31 10088.7,6859.97 10087.3,6859.41C10085.8,6858.85 10084.1,6859.16 10083,6860.22C10058.8,6882.11 10032.4,6905.68 10006.2,6917.75C9989.61,6925.41 9973.2,6928.41 9957.69,6922.73C9955.53,6921.94 9953.14,6923.05 9952.34,6925.21C9951.55,6927.37 9952.66,6929.76 9954.82,6930.55C9972.35,6936.98 9990.94,6933.97 10009.7,6925.32C10034.3,6913.94 10059.3,6892.71 10082.5,6871.91C10085,6897.23 10088.3,6927.2 10097.9,6953.23C10105.3,6973.09 10116.4,6990.66 10133.5,7002.48C10135.3,7003.78 10137.9,7003.31 10139.2,7001.42C10140.6,6999.52 10140.1,6996.93 10138.2,6995.62ZM12703.6,7001.85C12720.7,6990.04 12731.8,6972.47 12739.2,6952.61C12748.8,6926.58 12752,6896.61 12754.6,6871.29C12777.7,6892.09 12802.7,6913.31 12827.4,6924.69C12846.1,6933.35 12864.7,6936.36 12882.2,6929.93C12884.4,6929.14 12885.5,6926.75 12884.7,6924.59C12883.9,6922.43 12881.5,6921.32 12879.4,6922.11C12863.9,6927.79 12847.5,6924.79 12830.9,6917.13C12804.7,6905.06 12778.2,6881.49 12754.1,6859.59C12752.9,6858.54 12751.3,6858.23 12749.8,6858.79C12748.3,6859.35 12747.3,6860.69 12747.1,6862.25C12744.9,6884.18 12742.7,6910.79 12735.9,6935.43C12729.4,6959.32 12718.6,6981.4 12698.9,6995C12697,6996.31 12696.5,6998.9 12697.8,7000.79C12699.1,7002.69 12701.7,7003.16 12703.6,7001.85Z" style="fill:#4a0017;"/>
    </g>
    <g id="lowerteeth">
        <path id="lu2" d="M11179.8,8580.84C11165.2,8943.87 11413.9,8919.05 11426.1,8592.14C11427.6,8550.79 11181.4,8539.17 11179.8,8580.84Z" style="fill:url(#_Radial35);stroke:#4a0017;stroke-width:8.33px;"/>
        <path id="lu3" d="M10953.5,8618.74C10989.4,8959.8 11203.1,8912.84 11170,8605.8C11165.8,8566.97 10949.4,8579.6 10953.5,8618.74Z" style="fill:url(#_Radial36);stroke:#4a0017;stroke-width:8.33px;"/>
        <path id="lu4" d="M10953.9,8607.02C10984.3,9012.32 10760.7,8990.72 10765.3,8628.23C10765.9,8583.64 10787.3,8593.62 10780.9,8563.98C10776.7,8544.66 10951.6,8575.59 10953.9,8607.02Z" style="fill:url(#_Radial37);stroke:#4a0017;stroke-width:8.33px;"/>
        <path id="lu5" d="M10473.3,8558.3C10406.4,8708.43 10442.7,8781.68 10463.8,8833.12C10486.8,8889.25 10703.8,8920.66 10744.8,8856.28C10789.9,8785.69 10810.8,8686.97 10754.7,8543.44C10733.5,8489.29 10643.5,8569.18 10616.9,8570.4C10597.1,8571.31 10493,8514.11 10473.3,8558.3Z" style="fill:url(#_Radial38);stroke:#4a0017;stroke-width:8.33px;"/>
        <path id="lu6" d="M10501.6,8503.24C10574.9,8689.2 10526.5,8773.45 10493.4,8829.3C10457.3,8890.24 10167.4,8887.85 10119.7,8805.9C10067.3,8716.05 10039.8,8649.03 10128.5,8492.73C10162,8433.77 10327.9,8494.12 10362.9,8500.3C10389,8504.89 10480.1,8448.52 10501.6,8503.24Z" style="fill:url(#_Radial39);stroke:#4a0017;stroke-width:8.33px;"/>
        <path id="lu7" d="M10222,8384.91C10244.8,8606.97 10175.8,8746.45 10125.4,8798.77C10070.5,8855.86 9769.88,8777.61 9743.77,8675.72C9715.14,8564.01 9705.75,8483.68 9842.72,8336.25C9894.4,8280.63 10056.6,8343.94 10091.2,8359.82C10117,8371.62 10215.2,8319.55 10222,8384.91Z" style="fill:url(#_Radial40);stroke:#4a0017;stroke-width:8.33px;"/>
        <path id="ru2" d="M11684.7,8580.84C11699.2,8943.87 11450.5,8919.05 11438.4,8592.14C11436.8,8550.79 11683,8539.17 11684.7,8580.84Z" style="fill:url(#_Radial41);stroke:#4a0017;stroke-width:8.33px;"/>
        <path id="ru3" d="M11910.9,8618.74C11875.1,8959.8 11661.4,8912.84 11694.5,8605.8C11698.7,8566.97 11915,8579.6 11910.9,8618.74Z" style="fill:url(#_Radial42);stroke:#4a0017;stroke-width:8.33px;"/>
        <path id="ru4" d="M11910.5,8607.02C11880.2,9012.32 12103.8,8990.72 12099.1,8628.23C12098.5,8583.64 12077.2,8593.62 12083.6,8563.98C12087.7,8544.66 11912.9,8575.59 11910.5,8607.02Z" style="fill:url(#_Radial43);stroke:#4a0017;stroke-width:8.33px;"/>
        <path id="ru5" d="M12391.1,8558.18C12458.1,8708.32 12421.8,8781.57 12400.7,8833.01C12377.7,8889.14 12160.7,8920.55 12119.6,8856.17C12074.6,8785.58 12053.7,8686.86 12109.8,8543.33C12130.9,8489.18 12221,8569.07 12247.6,8570.29C12267.4,8571.2 12371.4,8514 12391.1,8558.18Z" style="fill:url(#_Radial44);stroke:#4a0017;stroke-width:8.33px;"/>
        <path id="ru6" d="M12363,8503.2C12289.8,8689.16 12338.2,8773.41 12371.3,8829.25C12407.4,8890.19 12697.3,8887.8 12745,8805.86C12797.3,8716.01 12824.8,8648.98 12736.1,8492.69C12702.6,8433.72 12536.8,8494.08 12501.8,8500.25C12475.7,8504.84 12384.6,8448.47 12363,8503.2Z" style="fill:url(#_Radial45);stroke:#4a0017;stroke-width:8.33px;"/>
        <path id="ru7" d="M12640.1,8387.24C12617.6,8609.26 12686.8,8748.85 12737.2,8801.25C12792.3,8858.42 13092.7,8780.62 13118.7,8678.78C13147.2,8567.11 13156.4,8486.79 13019.3,8339.15C12967.5,8283.45 12805.4,8346.52 12770.8,8362.35C12745.1,8374.11 12646.7,8321.89 12640.1,8387.24Z" style="fill:url(#_Radial46);stroke:#4a0017;stroke-width:8.33px;"/>
        <path id="lc" d="M10535.9,8571.75C10566.3,8584.96 10604.6,8608.16 10612.1,8639.02C10635.8,8605.56 10666.5,8595.25 10695.8,8598.98C10668.6,8587.34 10641.4,8585.42 10614.2,8608.26C10594.8,8580.68 10566.2,8574.2 10535.9,8571.75ZM12328.5,8593.75C12295.7,8598.64 12252.6,8611.12 12237.4,8638.99C12223.2,8600.54 12196.2,8582.65 12167,8578.67C12191.5,8573.22 12216,8564.85 12240.4,8612.09C12278.6,8576.56 12304.5,8582.1 12328.5,8593.75ZM12440.8,8519.45C12485.1,8520.84 12517,8564.81 12540.3,8594.94C12555.2,8548.8 12573.1,8496.24 12611.7,8487.86C12581.4,8491.41 12551.2,8495.52 12535,8545.7C12510.7,8518.02 12477.1,8515.02 12440.8,8519.45ZM10373.5,8519.69C10329.2,8521.08 10297.3,8565.05 10273.9,8595.18C10259.1,8549.04 10262.3,8504.48 10226.2,8496.1C10262.3,8509.04 10279.1,8514.55 10282.9,8562.32C10315.2,8508.82 10344.3,8515.75 10373.5,8519.69ZM10146.5,8429.4C10097.5,8420.45 10049.7,8461.94 10015.1,8490.01C10012.4,8435.02 10008.3,8372.14 9968.35,8353.63C10012.1,8369.4 10043.3,8392.23 10042,8433.47C10083.4,8408.87 10116.8,8412.87 10146.5,8429.4ZM12668.6,8430.03C12717.5,8421.07 12765.4,8462.56 12799.9,8490.63C12802.6,8435.64 12806.8,8372.76 12846.7,8354.26C12803.3,8366.02 12777.3,8392.69 12777,8441.55C12744.9,8406.92 12706.8,8418.05 12668.6,8430.03Z" style="fill:#5e0000;fill-opacity:0.18;"/>
        <path id="lcl" d="M10537.4,8567.88C10556,8575.94 10577.4,8587.69 10593.3,8602.56C10602.3,8611.04 10609.5,8620.56 10613.6,8630.94C10637.6,8600.58 10667.6,8591.21 10696.4,8594.87C10698.4,8595.12 10699.7,8597.17 10699.4,8599.44C10699,8601.7 10697.1,8603.34 10695.1,8603.09C10667,8599.51 10637.7,8609.39 10614.9,8641.46C10614.1,8642.7 10612.7,8643.34 10611.3,8643.11C10610,8642.88 10609,8641.82 10608.6,8640.37C10605.8,8628.7 10598.2,8618.27 10588.3,8609.06C10573,8594.7 10552.3,8583.41 10534.4,8575.62C10532.5,8574.82 10531.7,8572.44 10532.6,8570.3C10533.4,8568.17 10535.6,8567.08 10537.4,8567.88ZM12328.9,8597.88C12309.6,8600.76 12286.7,8606.3 12268.1,8616.21C12256.3,8622.56 12246.2,8630.67 12240.5,8641.2C12239.8,8642.52 12238.5,8643.27 12237.1,8643.14C12235.8,8643.02 12234.6,8642.05 12234.1,8640.62C12220.4,8603.76 12194.6,8586.62 12166.6,8582.8C12164.6,8582.53 12163.2,8580.46 12163.4,8578.18C12163.6,8575.89 12165.4,8574.26 12167.4,8574.53C12196.2,8578.44 12222.8,8595.27 12238.1,8630.82C12244.7,8621.83 12254.1,8614.51 12265.1,8608.66C12284.2,8598.4 12308,8592.6 12328,8589.62C12330,8589.32 12331.8,8590.93 12332.1,8593.21C12332.3,8595.49 12330.9,8597.58 12328.9,8597.88ZM12440.9,8515.29C12464.1,8516.01 12484,8527.73 12501.2,8543.33C12515.6,8556.43 12528.1,8572.24 12538.8,8586.15C12547.3,8560.26 12557,8533.26 12570.8,8513.5C12581.4,8498.32 12594.4,8487.36 12610.8,8483.79C12613.1,8483.3 12615.3,8484.73 12615.8,8486.98C12616.3,8489.23 12614.9,8491.45 12612.6,8491.93C12598.2,8495.07 12586.9,8504.94 12577.6,8518.27C12562.9,8539.34 12553.1,8568.93 12544.3,8596.21C12543.8,8597.69 12542.6,8598.77 12541.1,8599.04C12539.5,8599.31 12538,8598.72 12537.1,8597.49C12525.5,8582.6 12511.9,8564.26 12495.6,8549.5C12479.9,8535.24 12461.8,8524.28 12440.7,8523.62C12438.4,8523.55 12436.6,8521.62 12436.6,8519.32C12436.7,8517.02 12438.6,8515.22 12440.9,8515.29ZM10373.6,8523.86C10352.4,8524.52 10334.3,8535.49 10318.6,8549.74C10302.4,8564.51 10288.8,8582.84 10277.2,8597.74C10276.3,8598.96 10274.7,8599.55 10273.2,8599.28C10271.7,8599.02 10270.4,8597.93 10269.9,8596.46C10261.2,8569.17 10264.8,8547.58 10251.1,8526.51C10242.4,8513.18 10238.9,8503.31 10225.4,8500.18C10223.3,8499.69 10222,8497.47 10222.4,8495.22C10222.9,8492.97 10225,8491.54 10227.1,8492.03C10242.4,8495.6 10247.6,8506.56 10257.5,8521.74C10270.4,8541.5 10267,8560.5 10275.4,8586.39C10286.2,8572.48 10298.6,8556.67 10313,8543.57C10330.2,8527.97 10350.2,8516.26 10373.3,8515.53C10375.6,8515.46 10377.6,8517.26 10377.6,8519.56C10377.7,8521.86 10375.9,8523.79 10373.6,8523.86ZM10145.8,8433.5C10122.2,8429.2 10099,8437.18 10077.5,8449.44C10055.3,8462.09 10034.9,8479.33 10017.8,8493.24C10016.6,8494.23 10014.9,8494.45 10013.4,8493.81C10012,8493.17 10011.1,8491.78 10011,8490.21C10009.4,8457.65 10007.3,8422.27 9997.37,8395.23C9991.06,8378.09 9981.58,8364.36 9966.59,8357.41C9964.51,8356.45 9963.6,8353.97 9964.57,8351.88C9965.53,8349.79 9968.01,8348.89 9970.1,8349.85C9987.04,8357.71 9998.06,8372.98 10005.2,8392.35C10014.6,8417.83 10017.2,8450.52 10018.9,8481.58C10038.6,8465.49 10062.1,8446.58 10087.3,8435C10106.6,8426.16 10126.8,8421.57 10147.3,8425.31C10149.5,8425.72 10151,8427.89 10150.6,8430.15C10150.2,8432.42 10148,8433.92 10145.8,8433.5ZM12667.8,8425.93C12688.2,8422.19 12708.5,8426.78 12727.8,8435.62C12753,8447.2 12776.5,8466.11 12796.2,8482.2C12797.8,8451.14 12800.5,8418.46 12809.9,8392.98C12817,8373.6 12828,8358.33 12845,8350.48C12847.1,8349.51 12849.5,8350.42 12850.5,8352.5C12851.5,8354.59 12850.6,8357.07 12848.5,8358.04C12833.5,8364.98 12824,8378.72 12817.7,8395.86C12807.7,8422.89 12805.7,8458.27 12804.1,8490.83C12804,8492.4 12803.1,8493.79 12801.6,8494.43C12800.2,8495.07 12798.5,8494.85 12797.3,8493.86C12780.2,8479.96 12759.8,8462.71 12737.6,8450.06C12716.1,8437.8 12692.8,8429.82 12669.3,8434.13C12667,8434.54 12664.9,8433.04 12664.5,8430.78C12664,8428.51 12665.5,8426.34 12667.8,8425.93Z" style="fill:#4a0017;"/>
    </g>
    <path id="uppergum" d="M12782.3,6457.32C12747.2,6492.07 12744,6532.62 12754.4,6575.64C12589.6,6587.32 12465.9,6643.44 12457.2,6824.16C12324.5,6840.07 12253.6,6921.14 12237.9,7060.49C12173.9,7036.91 12123.2,7069.46 12091.7,7182.32C12033.9,7164.03 11992.7,7195.73 11967.4,7274.9C11870,7177.85 11790.3,7222.48 11718.9,7333.38C11635.5,7198.41 11543.3,7168.62 11433.8,7345.56C11326.6,7208.95 11232.5,7199.54 11151.2,7316.32C11077.8,7227.28 10998,7195.8 10905.1,7282.21C10879.4,7189.94 10831,7161.7 10766.3,7179.88C10777.5,7084.01 10756,7016.52 10617.6,7050.75C10640.4,6930.18 10577.8,6857.01 10425.2,6833.9C10444.2,6722.64 10405.3,6647.93 10300.9,6614.62C10299.8,6547.45 10278.6,6489.47 10200.4,6457.32L9473.61,6421.32L9253.12,5457.96L13292.8,5486.75L13484.2,6412.32L12782.3,6457.32ZM11450.4,7190.21C11540.6,7063.35 11674.4,7188.22 11672.2,7181.74L11464.6,6563.15C11463.8,6560.77 11460.4,6559.17 11456.9,6559.44C11453.3,6559.72 11450.6,6561.78 11450.6,6564.23L11450.4,7190.21ZM11415,7198.28L11414.9,6564.23C11414.9,6561.78 11412.2,6559.72 11408.6,6559.44C11405,6559.17 11401.7,6560.77 11400.9,6563.15L11198.7,7165.61C11262.4,7094.77 11334.5,7105.48 11415,7198.28ZM11707.1,7179.85C11766.3,7101.24 11918.2,7127.48 11917.3,7126.23L11512.6,6554.59C11511.1,6552.38 11507.3,6551.33 11503.9,6552.14C11500.5,6552.94 11498.5,6555.36 11499.3,6557.75L11706.7,7176.39C11707.1,7177.55 11707.2,7178.71 11707.1,7179.85ZM11160.2,7172.3L11366.1,6557.75C11366.9,6555.36 11365,6552.94 11361.6,6552.14C11358.2,6551.33 11354.4,6552.38 11352.9,6554.59C11352.9,6554.59 10946.4,7128.26 10945.3,7129.1C10949.5,7138.76 10953.3,7149.57 10956.6,7161.59C11032.7,7090.81 11099.1,7108.06 11160.2,7172.3ZM12070.5,6977.28L11556.7,6538.96C11554.4,6537.05 11550.4,6536.59 11547.4,6537.89C11544.3,6539.19 11543.2,6541.85 11544.8,6544.06L11937.7,7099.5C11959.4,7070.17 11987.7,7060.71 12022.8,7071.83C12035.5,7026.59 12051.5,6995.72 12070.5,6977.28ZM10928.2,7098.92L11320.7,6544.06C11322.3,6541.85 11321.1,6539.19 11318.1,6537.89C11315.1,6536.59 11311.1,6537.05 11308.8,6538.96L10811.2,6963.38C10834.2,6984.78 10837.2,7023.56 10831.9,7069.64C10871.3,7058.56 10904,7066.68 10928.2,7098.92ZM12192.7,6841.58L11594.5,6517.06C11591.7,6515.53 11587.6,6515.69 11585.1,6517.42C11582.6,6519.15 11582.3,6521.91 11584.6,6523.82L12096.1,6960.44C12113.7,6953.61 12133.1,6954.61 12154.2,6962.37C12159.6,6914.26 12172.3,6873.88 12192.7,6841.58ZM10783.2,6948.65L11280.9,6523.82C11283.2,6521.91 11282.9,6519.15 11280.4,6517.42C11277.8,6515.69 11273.8,6515.53 11271,6517.06L10681.3,6836.92C10701.6,6867.69 10707.2,6906.65 10698.3,6953.61C10735.2,6944.49 10762.8,6943.41 10783.2,6948.65ZM12352.9,6728.65L11624.2,6489.97C11621,6488.91 11617.1,6489.67 11615.2,6491.75C11613.3,6493.82 11614,6496.55 11616.8,6498.07L12208.9,6819.53C12241.8,6780.95 12288.9,6757.48 12351.2,6750.01C12351.6,6742.67 12352.1,6735.56 12352.9,6728.65ZM10663.6,6815.68L11248.7,6498.07C11251.5,6496.55 11252.2,6493.82 11250.3,6491.75C11248.4,6489.67 11244.5,6488.91 11241.2,6489.97L10529.3,6723.18C10528.8,6734.53 10527.5,6746.4 10525.4,6758.77C10588.4,6768.31 10634.4,6787.36 10663.6,6815.68ZM12432.3,6581.34L11644.4,6459.06C11640.9,6458.52 11637.3,6459.85 11636.1,6462.17C11634.9,6464.48 11636.5,6467.03 11639.7,6468.1L12356.9,6703.2C12368.2,6647.61 12394.7,6608.5 12432.3,6581.34ZM10528.9,6696.53L11225.8,6468.1C11229,6467.03 11230.5,6464.48 11229.4,6462.17C11228.2,6459.85 11224.6,6458.52 11221.1,6459.06L10453,6578.27C10500.1,6603.94 10524.9,6643.71 10528.9,6696.53Z" style="fill:#ffa446;fill-opacity:0.1;"/>
    <path id="tounge" d="M9695.14,8991.56C10605.1,9032.49 11046.4,8263.44 11421.4,8643.6C11843.9,8241.61 12429.1,9018.55 13201.8,9001.69L13513,9996.74L9319.8,9981.18L9695.14,8991.56Z" style="fill:url(#_Radial47);stroke:#000;stroke-width:8.33px;"/>
    <path id="toungeline" d="M11423.6,8642.38C11423.6,8642.38 11178.9,8903.2 11267,9059.82" style="fill:none;stroke:#4a0017;stroke-width:8.33px;"/>
    <defs>
        <linearGradient id="_Linear1" x1="0" y1="0" x2="1" y2="0" gradientUnits="userSpaceOnUse" gradientTransform="matrix(1.45134e-13,2370.22,-2370.22,1.45134e-13,11146.6,6594.55)"><stop offset="0" style="stop-color:#f96646;stop-opacity:1"/><stop offset="0.06" style="stop-color:#f8b86f;stop-opacity:1"/><stop offset="0.83" style="stop-color:#f78660;stop-opacity:1"/><stop offset="0.9" style="stop-color:#f38460;stop-opacity:1"/><stop offset="0.94" style="stop-color:#db7960;stop-opacity:1"/><stop offset="1" style="stop-color:#db7960;stop-opacity:1"/></linearGradient>
        <linearGradient id="_Linear3" x1="0" y1="0" x2="1" y2="0" gradientUnits="userSpaceOnUse" gradientTransform="matrix(9.75326,-455.58,455.58,9.75326,11416.2,8384.55)"><stop offset="0" style="stop-color:#6c2500;stop-opacity:0.5"/><stop offset="1" style="stop-color:#4c1300;stop-opacity:0"/></linearGradient>
        <filter id="_Effect5" filterUnits="userSpaceOnUse" x="10899.9" y="8198.58" width="1096.05" height="1034.56">
            <feGaussianBlur in="SourceGraphic" stdDeviation="5.47619"/>
        </filter>
        <linearGradient id="_Linear6" x1="0" y1="0" x2="1" y2="0" gradientUnits="userSpaceOnUse" gradientTransform="matrix(-4.12612,-1059.7,1059.7,-4.12612,11443.9,9028.16)"><stop offset="0" style="stop-color:#6c2500;stop-opacity:1"/><stop offset="1" style="stop-color:#4c1300;stop-opacity:0"/></linearGradient>
        <linearGradient id="_Linear8" x1="0" y1="0" x2="1" y2="0" gradientUnits="userSpaceOnUse" gradientTransform="matrix(9.75326,-455.58,455.58,9.75326,11416.2,8384.55)"><stop offset="0" style="stop-color:#6c2500;stop-opacity:0.5"/><stop offset="1" style="stop-color:#4c1300;stop-opacity:0"/></linearGradient>
        <linearGradient id="_Linear9" x1="0" y1="0" x2="1" y2="0" gradientUnits="userSpaceOnUse" gradientTransform="matrix(2.80291,53.2206,-53.2206,2.80291,11424.3,7868.86)"><stop offset="0" style="stop-color:#6c2500;stop-opacity:0.5"/><stop offset="1" style="stop-color:#4c1300;stop-opacity:0"/></linearGradient>
        <linearGradient id="_Linear10" x1="0" y1="0" x2="1" y2="0" gradientUnits="userSpaceOnUse" gradientTransform="matrix(3.33716,-299.698,299.698,3.33716,11423.2,7962.15)"><stop offset="0" style="stop-color:#6c2500;stop-opacity:0.5"/><stop offset="1" style="stop-color:#4c1300;stop-opacity:0"/></linearGradient>
        <linearGradient id="_Linear11" x1="0" y1="0" x2="1" y2="0" gradientUnits="userSpaceOnUse" gradientTransform="matrix(5.53196,219.669,-219.669,5.53196,11423.2,7752.24)"><stop offset="0" style="stop-color:#6c2500;stop-opacity:0.5"/><stop offset="1" style="stop-color:#4c1300;stop-opacity:0"/></linearGradient>
        <filter id="_Effect17" filterUnits="userSpaceOnUse" x="10899.9" y="8198.58" width="1096.05" height="1034.56">
            <feGaussianBlur in="SourceGraphic" stdDeviation="5.47619"/>
        </filter>
        <linearGradient id="_Linear18" x1="0" y1="0" x2="1" y2="0" gradientUnits="userSpaceOnUse" gradientTransform="matrix(-4.12612,-1059.7,1059.7,-4.12612,11443.9,9028.16)"><stop offset="0" style="stop-color:#6c2500;stop-opacity:1"/><stop offset="1" style="stop-color:#4c1300;stop-opacity:0"/></linearGradient>
        <filter id="_Effect20" filterUnits="userSpaceOnUse" x="10899.9" y="8198.58" width="1096.05" height="1034.56">
            <feGaussianBlur in="SourceGraphic" stdDeviation="5.47619"/>
        </filter>
        <linearGradient id="_Linear21" x1="0" y1="0" x2="1" y2="0" gradientUnits="userSpaceOnUse" gradientTransform="matrix(-4.12612,-1059.7,1059.7,-4.12612,11443.9,9028.16)"><stop offset="0" style="stop-color:#6c2500;stop-opacity:1"/><stop offset="1" style="stop-color:#4c1300;stop-opacity:0"/></linearGradient>
        <radialGradient id="_Radial22" cx="0" cy="0" r="1" gradientUnits="userSpaceOnUse" gradientTransform="matrix(5213.27,-22.5217,12.9121,2988.87,11452.6,8028.72)"><stop offset="0" style="stop-color:#970604;stop-opacity:1"/><stop offset="1" style="stop-color:#000;stop-opacity:1"/></radialGradient>
        <radialGradient id="_Radial23" cx="0" cy="0" r="1" gradientUnits="userSpaceOnUse" gradientTransform="matrix(4290.71,-35.1424,23.6068,2882.28,11448.8,8046.13)"><stop offset="0" style="stop-color:#fff4ea;stop-opacity:1"/><stop offset="1" style="stop-color:#681600;stop-opacity:1"/></radialGradient>
        <radialGradient id="_Radial24" cx="0" cy="0" r="1" gradientUnits="userSpaceOnUse" gradientTransform="matrix(4290.71,-35.1424,23.6068,2882.28,11448.8,8046.13)"><stop offset="0" style="stop-color:#fff4ea;stop-opacity:1"/><stop offset="1" style="stop-color:#681600;stop-opacity:1"/></radialGradient>
        <radialGradient id="_Radial25" cx="0" cy="0" r="1" gradientUnits="userSpaceOnUse" gradientTransform="matrix(4290.71,-35.1424,23.6068,2882.28,11448.8,8046.13)"><stop offset="0" style="stop-color:#fff4ea;stop-opacity:1"/><stop offset="1" style="stop-color:#681600;stop-opacity:1"/></radialGradient>
        <radialGradient id="_Radial26" cx="0" cy="0" r="1" gradientUnits="userSpaceOnUse" gradientTransform="matrix(4290.71,-35.1424,23.6068,2882.28,11448.8,8046.13)"><stop offset="0" style="stop-color:#fff4ea;stop-opacity:1"/><stop offset="1" style="stop-color:#681600;stop-opacity:1"/></radialGradient>
        <radialGradient id="_Radial27" cx="0" cy="0" r="1" gradientUnits="userSpaceOnUse" gradientTransform="matrix(4290.71,-35.1424,23.6068,2882.28,11448.8,8046.13)"><stop offset="0" style="stop-color:#fff4ea;stop-opacity:1"/><stop offset="1" style="stop-color:#681600;stop-opacity:1"/></radialGradient>
        <radialGradient id="_Radial28" cx="0" cy="0" r="1" gradientUnits="userSpaceOnUse" gradientTransform="matrix(4290.71,-35.1424,23.6068,2882.28,11448.8,8046.13)"><stop offset="0" style="stop-color:#fff4ea;stop-opacity:1"/><stop offset="1" style="stop-color:#681600;stop-opacity:1"/></radialGradient>
        <radialGradient id="_Radial29" cx="0" cy="0" r="1" gradientUnits="userSpaceOnUse" gradientTransform="matrix(4290.71,-35.1424,23.6068,2882.28,11448.8,8046.13)"><stop offset="0" style="stop-color:#fff4ea;stop-opacity:1"/><stop offset="1" style="stop-color:#681600;stop-opacity:1"/></radialGradient>
        <radialGradient id="_Radial30" cx="0" cy="0" r="1" gradientUnits="userSpaceOnUse" gradientTransform="matrix(4290.71,-35.1424,23.6068,2882.28,11448.8,8046.13)"><stop offset="0" style="stop-color:#fff4ea;stop-opacity:1"/><stop offset="1" style="stop-color:#681600;stop-opacity:1"/></radialGradient>
        <radialGradient id="_Radial31" cx="0" cy="0" r="1" gradientUnits="userSpaceOnUse" gradientTransform="matrix(4290.71,-35.1424,23.6068,2882.28,11448.8,8046.13)"><stop offset="0" style="stop-color:#fff4ea;stop-opacity:1"/><stop offset="1" style="stop-color:#681600;stop-opacity:1"/></radialGradient>
        <radialGradient id="_Radial32" cx="0" cy="0" r="1" gradientUnits="userSpaceOnUse" gradientTransform="matrix(4290.71,-35.1424,23.6068,2882.28,11448.8,8046.13)"><stop offset="0" style="stop-color:#fff4ea;stop-opacity:1"/><stop offset="1" style="stop-color:#681600;stop-opacity:1"/></radialGradient>
        <radialGradient id="_Radial33" cx="0" cy="0" r="1" gradientUnits="userSpaceOnUse" gradientTransform="matrix(4290.71,-35.1424,23.6068,2882.28,11448.8,8046.13)"><stop offset="0" style="stop-color:#fff4ea;stop-opacity:1"/><stop offset="1" style="stop-color:#681600;stop-opacity:1"/></radialGradient>
        <radialGradient id="_Radial34" cx="0" cy="0" r="1" gradientUnits="userSpaceOnUse" gradientTransform="matrix(4290.71,-35.1424,23.6068,2882.28,11448.8,8046.13)"><stop offset="0" style="stop-color:#fff4ea;stop-opacity:1"/><stop offset="1" style="stop-color:#681600;stop-opacity:1"/></radialGradient>
        <radialGradient id="_Radial35" cx="0" cy="0" r="1" gradientUnits="userSpaceOnUse" gradientTransform="matrix(4290.71,-35.1424,23.6068,2882.28,11448.8,8046.13)"><stop offset="0" style="stop-color:#fff4ea;stop-opacity:1"/><stop offset="1" style="stop-color:#681600;stop-opacity:1"/></radialGradient>
        <radialGradient id="_Radial36" cx="0" cy="0" r="1" gradientUnits="userSpaceOnUse" gradientTransform="matrix(4290.71,-35.1424,23.6068,2882.28,11448.8,8046.13)"><stop offset="0" style="stop-color:#fff4ea;stop-opacity:1"/><stop offset="1" style="stop-color:#681600;stop-opacity:1"/></radialGradient>
        <radialGradient id="_Radial37" cx="0" cy="0" r="1" gradientUnits="userSpaceOnUse" gradientTransform="matrix(4290.71,-35.1424,23.6068,2882.28,11448.8,8046.13)"><stop offset="0" style="stop-color:#fff4ea;stop-opacity:1"/><stop offset="1" style="stop-color:#681600;stop-opacity:1"/></radialGradient>
        <radialGradient id="_Radial38" cx="0" cy="0" r="1" gradientUnits="userSpaceOnUse" gradientTransform="matrix(4290.71,-35.1424,23.6068,2882.28,11448.8,8046.13)"><stop offset="0" style="stop-color:#fff4ea;stop-opacity:1"/><stop offset="1" style="stop-color:#681600;stop-opacity:1"/></radialGradient>
        <radialGradient id="_Radial39" cx="0" cy="0" r="1" gradientUnits="userSpaceOnUse" gradientTransform="matrix(4290.71,-35.1424,23.6068,2882.28,11448.8,8046.13)"><stop offset="0" style="stop-color:#fff4ea;stop-opacity:1"/><stop offset="1" style="stop-color:#681600;stop-opacity:1"/></radialGradient>
        <radialGradient id="_Radial40" cx="0" cy="0" r="1" gradientUnits="userSpaceOnUse" gradientTransform="matrix(4290.71,-35.1424,23.6068,2882.28,11448.8,8046.13)"><stop offset="0" style="stop-color:#fff4ea;stop-opacity:1"/><stop offset="1" style="stop-color:#681600;stop-opacity:1"/></radialGradient>
        <radialGradient id="_Radial41" cx="0" cy="0" r="1" gradientUnits="userSpaceOnUse" gradientTransform="matrix(4290.71,-35.1424,23.6068,2882.28,11448.8,8046.13)"><stop offset="0" style="stop-color:#fff4ea;stop-opacity:1"/><stop offset="1" style="stop-color:#681600;stop-opacity:1"/></radialGradient>
        <radialGradient id="_Radial42" cx="0" cy="0" r="1" gradientUnits="userSpaceOnUse" gradientTransform="matrix(4290.71,-35.1424,23.6068,2882.28,11448.8,8046.13)"><stop offset="0" style="stop-color:#fff4ea;stop-opacity:1"/><stop offset="1" style="stop-color:#681600;stop-opacity:1"/></radialGradient>
        <radialGradient id="_Radial43" cx="0" cy="0" r="1" gradientUnits="userSpaceOnUse" gradientTransform="matrix(4290.71,-35.1424,23.6068,2882.28,11448.8,8046.13)"><stop offset="0" style="stop-color:#fff4ea;stop-opacity:1"/><stop offset="1" style="stop-color:#681600;stop-opacity:1"/></radialGradient>
        <radialGradient id="_Radial44" cx="0" cy="0" r="1" gradientUnits="userSpaceOnUse" gradientTransform="matrix(4290.71,-35.1424,23.6068,2882.28,11448.8,8046.13)"><stop offset="0" style="stop-color:#fff4ea;stop-opacity:1"/><stop offset="1" style="stop-color:#681600;stop-opacity:1"/></radialGradient>
        <radialGradient id="_Radial45" cx="0" cy="0" r="1" gradientUnits="userSpaceOnUse" gradientTransform="matrix(4290.71,-35.1424,23.6068,2882.28,11448.8,8046.13)"><stop offset="0" style="stop-color:#fff4ea;stop-opacity:1"/><stop offset="1" style="stop-color:#681600;stop-opacity:1"/></radialGradient>
        <radialGradient id="_Radial46" cx="0" cy="0" r="1" gradientUnits="userSpaceOnUse" gradientTransform="matrix(4290.71,-35.1424,23.6068,2882.28,11448.8,8046.13)"><stop offset="0" style="stop-color:#fff4ea;stop-opacity:1"/><stop offset="1" style="stop-color:#681600;stop-opacity:1"/></radialGradient>
        <radialGradient id="_Radial47" cx="0" cy="0" r="1" gradientUnits="userSpaceOnUse" gradientTransform="matrix(3506.62,0,0,912.851,11408.3,8644.44)"><stop offset="0" style="stop-color:#ff8e74;stop-opacity:1"/><stop offset="1" style="stop-color:#930504;stop-opacity:1"/></radialGradient>
    </defs>
</svg>
