<?xml version="1.0" encoding="UTF-8" standalone="no"?>
<svg width="100%" height="100%" viewBox="0 0 200 200" version="1.1" xmlns="http://www.w3.org/2000/svg" xmlns:xlink="http://www.w3.org/1999/xlink" xml:space="preserve" xmlns:serif="http://www.serif.com/" style="fill-rule:evenodd;clip-rule:evenodd;stroke-linecap:round;stroke-linejoin:round;stroke-miterlimit:1.5;">
    <path id="star" d="M100,16C114.142,35.135 122.104,54.437 118.859,74.043C141.493,84.476 161.485,82.876 179.889,74.043C167.855,92.194 151.947,104.921 130.515,109.915C131.003,133.479 138.546,151.913 149.374,167.957C129.426,160.927 111.958,150.396 100,132.085C75.264,136.266 59.855,149.209 50.626,167.957C51.231,146.987 55.718,127.125 69.485,109.915C56.352,92.496 39.823,80.654 20.111,74.043C40.454,68.984 60.798,68.293 81.141,74.043C97.531,59.099 101.938,38.932 100,16Z" style="fill:url(#_Linear1);stroke:#000;stroke-width:2px;"/>
    <defs>
        <linearGradient id="_Linear1" x1="0" y1="0" x2="1" y2="0" gradientUnits="userSpaceOnUse" gradientTransform="matrix(168,0,0,168,16,100)"><stop offset="0" style="stop-color:#f00;stop-opacity:1"/><stop offset="1" style="stop-color:#0500ff;stop-opacity:1"/></linearGradient>
    </defs>
</svg>
