<?xml version="1.0" encoding="UTF-8" standalone="no"?>
<svg width="100%" height="100%" viewBox="0 0 200 200" version="1.1" xmlns="http://www.w3.org/2000/svg" xmlns:xlink="http://www.w3.org/1999/xlink" xml:space="preserve" xmlns:serif="http://www.serif.com/" style="fill-rule:evenodd;clip-rule:evenodd;stroke-linecap:round;stroke-linejoin:round;stroke-miterlimit:1.5;">
    <path id="star" d="M180.717,74.372C166.923,93.76 151.05,107.325 131.407,110.332C128.523,135.086 136.254,153.592 150.369,168.341C129.377,162.542 112.337,151.376 100.932,132.556C78.685,140.342 63.507,153.238 51.621,168.516C52.106,147.371 56.688,127.495 70.378,110.44C58.718,88.228 41.628,77.602 20.94,74.655C41.061,68.715 61.334,66.809 81.969,74.547C94.446,56.651 100.566,37.262 100.726,16.471C111.854,34.236 118.832,53.357 119.688,74.48C138.984,85.416 159.522,83.339 180.717,74.372Z" style="fill:url(#_Linear1);stroke:#000;stroke-width:2px;"/>
    <defs>
        <linearGradient id="_Linear1" x1="0" y1="0" x2="1" y2="0" gradientUnits="userSpaceOnUse" gradientTransform="matrix(52.1981,159.685,-159.685,52.1981,74.7756,20.6284)"><stop offset="0" style="stop-color:#f00;stop-opacity:1"/><stop offset="1" style="stop-color:#0500ff;stop-opacity:1"/></linearGradient>
    </defs>
</svg>
